<svg xmlns="http://www.w3.org/2000/svg" width="185.262" height="185.262" viewBox="0 0 185.262 185.262"><g transform="translate(25.456 96.167) rotate(-45)" fill="#fff"><path d="M 94.90144348144531 87 L 5.098553657531738 87 L 50 6.177370071411133 L 94.90144348144531 86.99998474121094 C 94.90145111083984 86.99999237060547 94.90145111083984 86.99999237060547 94.90145111083984 87 C 94.90145111083984 87 94.90145111083984 87 94.90144348144531 87 Z" stroke="none"/><path d="M 49.99999618530273 12.35476684570313 L 10.19709014892578 84 L 89.80290985107422 84 L 49.99999618530273 12.35476684570313 M 50 3.177375793457031 C 51.02548217773438 3.177375793457031 52.05096435546875 3.691734313964844 52.62247085571289 4.720451354980469 L 97.52392578125 85.54307556152344 C 98.63481903076172 87.54265594482422 97.18891143798828 90 94.90145111083984 90 L 5.098548889160156 90 C 2.811088562011719 90 1.365180969238281 87.54265594482422 2.47607421875 85.54307556152344 L 47.37752914428711 4.720451354980469 C 47.94903564453125 3.691734313964844 48.97451782226563 3.177375793457031 50 3.177375793457031 Z" stroke="none" fill="#f43d60"/></g></svg>