<svg xmlns="http://www.w3.org/2000/svg" xmlns:xlink="http://www.w3.org/1999/xlink" width="95.5" height="96.289" viewBox="0 0 95.5 96.289"><defs><clipPath id="a"><rect width="92" height="96" transform="translate(0 -8)" fill="#0dc270" stroke="#0dc270" stroke-width="1"/></clipPath></defs><g transform="translate(-62.5 -148)"><path d="M172.621,211.411a1.463,1.463,0,0,0,1.463-1.463V195.316a1.463,1.463,0,0,0-1.463-1.463h-8.779v-4.389A1.463,1.463,0,0,0,162.379,188H109.705a1.463,1.463,0,0,0-1.463,1.463v36.579H99.463A1.463,1.463,0,0,0,98,227.505v40.968a1.463,1.463,0,0,0,1.463,1.463h73.158a1.463,1.463,0,0,0,1.463-1.463V242.137a1.463,1.463,0,0,0-1.463-1.463h-8.779v-2.926h8.779a1.463,1.463,0,0,0,1.463-1.463v-8.779a1.463,1.463,0,0,0-1.463-1.463h-8.779v-2.926h8.779a1.463,1.463,0,0,0,1.463-1.463V215.8a1.463,1.463,0,0,0-1.463-1.463h-8.779v-2.926Zm-1.463-2.926H147.747V196.779h23.411Zm0,58.526H127.263V249.292a10.207,10.207,0,0,0,7.316,3.087h29.263a10.207,10.207,0,0,0,7.316-3.087ZM127.41,243.6h43.6a7.328,7.328,0,0,1-7.169,5.853H134.579a7.328,7.328,0,0,1-7.169-5.853Zm43.748-8.779H159.453v-5.853h11.705Zm-16.095,0a1.463,1.463,0,0,1-1.463-1.463v-4.389h2.926v5.853Zm16.095-14.632H153.6v-2.926h17.558Zm-28.918,0-2.926-1.463,2.926-1.463h8.434v2.926Zm18.676-5.853H141.895a1.459,1.459,0,0,0-.654.154l-5.544,2.773h-2.581v2.926H135.7l5.544,2.78a1.467,1.467,0,0,0,.654.146h19.021v2.926h-8.779a1.463,1.463,0,0,0-1.463,1.463v5.853a4.39,4.39,0,0,0,4.389,4.389h5.853v2.926H125.8a1.463,1.463,0,0,0-1.463,1.463V267.01H100.926V228.968h43.895v8.779h2.926V227.505a1.463,1.463,0,0,0-1.463-1.463H111.168V190.926h49.747v2.926H146.284a1.463,1.463,0,0,0-1.463,1.463v14.632a1.463,1.463,0,0,0,1.463,1.463h14.632Zm0,0" transform="translate(-26.147 -26.147)" fill="#0dc270" stroke="#0dc270" stroke-width="1"/><rect width="3" height="3" transform="translate(125 174)" fill="#0dc270" stroke="#0dc270" stroke-width="1"/><rect width="3" height="2" transform="translate(89 170)" fill="#0dc270" stroke="#0dc270" stroke-width="1"/><rect width="2" height="3" transform="translate(80 207)" fill="#0dc270" stroke="#0dc270" stroke-width="1"/><rect width="13" height="2" transform="translate(94 170)" fill="#0dc270" stroke="#0dc270" stroke-width="1"/><rect width="12" height="3" transform="translate(85 207)" fill="#0dc270" stroke="#0dc270" stroke-width="1"/><rect width="3" height="3" transform="translate(105 234)" fill="#0dc270" stroke="#0dc270" stroke-width="1"/><rect width="12" height="3" transform="translate(111 234)" fill="#0dc270" stroke="#0dc270" stroke-width="1"/><rect width="12" height="3" transform="translate(130 174)" fill="#0dc270" stroke="#0dc270" stroke-width="1"/><rect width="3" height="23" transform="translate(63 216)" fill="#0dc270" stroke="#0dc270" stroke-width="1"/><path d="M127.853,158.926h24.874V156H127.853A5.853,5.853,0,0,0,122,161.853v10.242h2.926V161.853a2.926,2.926,0,0,1,2.926-2.926Zm0,0" transform="translate(-48.758 -2)" fill="#0dc270" stroke="#0dc270" stroke-width="1"/><g transform="translate(66 156)"><g transform="translate(0 0)" clip-path="url(#a)"><rect width="3" height="3" transform="translate(42 -2)" fill="#0dc270" stroke="#0dc270" stroke-width="1"/><rect width="3" height="28" transform="translate(88 36)" fill="#0dc270" stroke="#0dc270" stroke-width="1"/></g></g></g></svg>