<svg xmlns="http://www.w3.org/2000/svg" width="89.503" height="89.179" viewBox="0 0 89.503 89.179"><g transform="translate(-125.5 -217.317)"><path d="M146.95,535.413v-1.475H144v1.475a4.425,4.425,0,0,0,4.425,4.425H149.9v-2.95h-1.475a1.476,1.476,0,0,1-1.475-1.475Zm0,0" transform="translate(-11.575 -239.267)" fill="#0dc270" stroke="#0dc270" stroke-linecap="round" stroke-width="1"/><rect width="2.95" height="2.95" transform="translate(132.425 290.246)" fill="#0dc270" stroke="#0dc270" stroke-linecap="round" stroke-width="1"/><rect width="2.95" height="2.95" transform="translate(139.8 297.621)" fill="#0dc270" stroke="#0dc270" stroke-linecap="round" stroke-width="1"/><path d="M213.967,287.691l.008-.008-8.322-6.962V256.363a4.425,4.425,0,0,0-4.425-4.425v2.95a1.476,1.476,0,0,1,1.475,1.475v37.453l-32.451,21.261L137.8,293.817V256.363a1.476,1.476,0,0,1,1.475-1.475h17.7v-2.95h-17.7a4.425,4.425,0,0,0-4.425,4.425v24.358l-8.322,6.962v.008a1.473,1.473,0,0,0-.528,1.124v35.4a7.385,7.385,0,0,0,7.375,7.375h73.753a7.385,7.385,0,0,0,7.375-7.375v-35.4a1.473,1.473,0,0,0-.536-1.124Zm-8.314-3.123,4.9,4.1-4.9,3.217Zm-70.8,7.316-4.9-3.217,4.9-4.1Zm76.7,32.332a4.425,4.425,0,0,1-4.425,4.425H133.375a4.425,4.425,0,0,1-4.425-4.425V291.544l40.493,26.529a1.474,1.474,0,0,0,1.623,0l40.488-26.529Zm0,0" transform="translate(0 -25.595)" fill="#0dc270" stroke="#0dc270" stroke-linecap="round" stroke-width="1"/><path d="M190.548,251.275a7.374,7.374,0,1,0,7.373,12.774l4.736-2.735L221.5,280.686a4.45,4.45,0,0,0,6.263,0l1.622-1.622a4.4,4.4,0,0,0-.6-6.75l-8.861-6.712a7.353,7.353,0,0,1-2.037-2.04l-2.742-4.1,18.8-2.708a1.441,1.441,0,0,0,.526-.183,7.374,7.374,0,0,0,2.7-10.075l-11.8-20.437a7.374,7.374,0,0,0-10.075-2.7,1.476,1.476,0,0,0-.42.366l-19.471,24.746Zm5.9,10.22a4.428,4.428,0,0,1-4.425-7.671l3.836-2.213,4.425,7.671Zm18.993,3.708a10.133,10.133,0,0,0,2.774,2.8l8.864,6.713a1.479,1.479,0,0,1,.652,1.084,1.431,1.431,0,0,1-.431,1.18l-1.622,1.622a1.475,1.475,0,0,1-2.08.012l-17.376-17.87,5.694-.822Zm4.7-39.735a4.394,4.394,0,0,1,2.686,2.066l11.8,20.438a4.37,4.37,0,0,1-.476,5.074l-15.956-27.639a4.406,4.406,0,0,1,1.946.061Zm-4.285,1.789,15.522,26.885-28.3,4.077-4.9-8.487Zm0,0" transform="translate(-45.898 -3.293)" fill="#0dc270" stroke="#0dc270" stroke-linecap="round" stroke-width="1"/><path d="M374.93,254.16l7.664-4.425,1.475,2.555-7.664,4.425Zm0,0" transform="translate(-187.732 -23.933)" fill="#0dc270" stroke="#0dc270" stroke-linecap="round" stroke-width="1"/><path d="M360.766,225.664,365.191,218l2.554,1.475-4.425,7.664Zm0,0" transform="translate(-177.051 0)" fill="#0dc270" stroke="#0dc270" stroke-linecap="round" stroke-width="1"/><rect width="8.85" height="2.95" transform="translate(190.888 235.141)" fill="#0dc270" stroke="#0dc270" stroke-linecap="round" stroke-width="1"/></g></svg>