<svg xmlns="http://www.w3.org/2000/svg" width="103.682" height="97.201" viewBox="0 0 103.682 97.201"><g transform="translate(0 -16)"><path d="M85.246,49.982c0-.19.007-.379.007-.569a33.413,33.413,0,1,0-66.826,0c0,.19,0,.379.007.569a33.426,33.426,0,1,0,33.406,57.8A33.216,33.216,0,0,0,70.066,113.2a33.376,33.376,0,0,0,15.18-63.22ZM51.841,100.146a27.286,27.286,0,0,1-9.052-18.567,33.486,33.486,0,0,0,18.1,0A27.286,27.286,0,0,1,51.841,100.146Zm0-23.4A27.225,27.225,0,0,1,43.1,75.317a27.323,27.323,0,0,1,8.745-15.886,27.323,27.323,0,0,1,8.745,15.886A27.225,27.225,0,0,1,51.841,76.751ZM37.427,72.632a27.4,27.4,0,0,1-12.56-18.767,27.613,27.613,0,0,1,8.748-1.414A27.167,27.167,0,0,1,46.79,55.841,33.4,33.4,0,0,0,37.427,72.632ZM56.891,55.841a27.167,27.167,0,0,1,13.175-3.391,27.613,27.613,0,0,1,8.748,1.414,27.4,27.4,0,0,1-12.56,18.767A33.4,33.4,0,0,0,56.891,55.841ZM51.841,22.075A27.372,27.372,0,0,1,79.117,47.607a33.719,33.719,0,0,0-9.051-1.232A33.216,33.216,0,0,0,51.841,51.8a33.216,33.216,0,0,0-18.225-5.422,33.719,33.719,0,0,0-9.051,1.232A27.372,27.372,0,0,1,51.841,22.075ZM33.615,107.126A27.295,27.295,0,0,1,19.189,56.511,33.536,33.536,0,0,0,36.661,79.174c0,.2-.008.409-.008.614A33.314,33.314,0,0,0,46.79,103.735,27.167,27.167,0,0,1,33.615,107.126Zm36.451,0a27.167,27.167,0,0,1-13.175-3.391A33.314,33.314,0,0,0,67.028,79.788c0-.205,0-.41-.008-.614A33.536,33.536,0,0,0,84.492,56.511a27.295,27.295,0,0,1-14.426,50.615Z" fill="#0dc270"/></g></svg>