<svg xmlns="http://www.w3.org/2000/svg" xmlns:xlink="http://www.w3.org/1999/xlink" width="330" height="306" viewBox="0 0 330 306"><defs><clipPath id="a"><rect width="330" height="306" transform="translate(0 6511)" fill="none"/></clipPath></defs><g transform="translate(0 -6511)" clip-path="url(#a)"><g transform="matrix(-0.276, 0.961, -0.961, -0.276, 4066.938, 1275.44)" opacity="0.05"><path d="M285.969,899.612c-127.4-127.394-127.382-333.943.024-461.329s333.955-127.369,461.341.037" transform="translate(5954.798 1705.906)" fill="none" stroke="#fff" stroke-miterlimit="10" stroke-width="1"/><path d="M276.744,806.588c-104.293-104.225-104.309-273.262-.06-377.531s273.286-104.285,377.555-.037" transform="translate(6005.965 1757.135)" fill="none" stroke="#fff" stroke-miterlimit="10" stroke-width="1"/><path d="M271.444,717.315A207.653,207.653,0,1,1,565.179,424.02" transform="translate(6053.133 1804.394)" fill="none" stroke="#fff" stroke-miterlimit="10" stroke-width="1"/><path d="M258.167,620.381A148.414,148.414,0,1,1,468.019,410.455" transform="translate(6108.352 1859.46)" fill="none" stroke="#fff" stroke-miterlimit="10" stroke-width="1"/><path d="M248.862,527.268a89.157,89.157,0,1,1,126.124-126.05" transform="translate(6159.522 1910.631)" fill="none" stroke="#fff" stroke-miterlimit="10" stroke-width="1"/></g></g></svg>