<svg xmlns="http://www.w3.org/2000/svg" width="926.115" height="526.151" viewBox="0 0 926.115 526.151"><g transform="translate(-49.333 -70.835)"><g transform="translate(174.486 90.488)"><g transform="translate(69.892 46.114)"><path d="M305.075,183.733V169.152a2.581,2.581,0,0,0-2.582-2.582H298.74a2.368,2.368,0,0,1-2.317-1.818,51.581,51.581,0,0,0-6.5-15.764,2.407,2.407,0,0,1,.314-2.985l2.639-2.639a2.584,2.584,0,0,0,0-3.653l-10.31-10.31a2.582,2.582,0,0,0-3.652,0l-2.636,2.636a2.4,2.4,0,0,1-2.985.313,51.626,51.626,0,0,0-15.768-6.5,2.367,2.367,0,0,1-1.817-2.316V119.79a2.583,2.583,0,0,0-2.583-2.583H238.55a2.583,2.583,0,0,0-2.583,2.583v3.74a2.368,2.368,0,0,1-1.818,2.317,51.6,51.6,0,0,0-15.769,6.5,2.4,2.4,0,0,1-2.985-.314l-2.633-2.633a2.582,2.582,0,0,0-3.652,0l-10.31,10.31a2.584,2.584,0,0,0,0,3.653L201.436,146a2.4,2.4,0,0,1,.313,2.983,51.68,51.68,0,0,0-6.5,15.768,2.367,2.367,0,0,1-2.316,1.818h-3.749a2.582,2.582,0,0,0-2.583,2.582v14.582a2.583,2.583,0,0,0,2.583,2.582h3.75a2.368,2.368,0,0,1,2.316,1.817,51.649,51.649,0,0,0,6.5,15.764,2.4,2.4,0,0,1-.313,2.985l-2.639,2.64a2.582,2.582,0,0,0,0,3.652l10.31,10.311a2.582,2.582,0,0,0,3.652,0l2.642-2.643a2.406,2.406,0,0,1,2.985-.313,51.631,51.631,0,0,0,15.761,6.49,2.368,2.368,0,0,1,1.818,2.317v3.76a2.583,2.583,0,0,0,2.583,2.583h14.58a2.583,2.583,0,0,0,2.583-2.583v-3.761a2.369,2.369,0,0,1,1.818-2.317,51.617,51.617,0,0,0,15.759-6.49,2.4,2.4,0,0,1,2.983.313l2.645,2.645a2.582,2.582,0,0,0,3.652,0l10.31-10.311a2.582,2.582,0,0,0,0-3.652l-2.642-2.642a2.406,2.406,0,0,1-.314-2.985,51.575,51.575,0,0,0,6.5-15.761,2.368,2.368,0,0,1,2.316-1.818h3.756A2.582,2.582,0,0,0,305.075,183.733Zm-59.238,33.821a41.107,41.107,0,1,1,41.089-41.124A41.1,41.1,0,0,1,245.837,217.554Z" transform="translate(-186.604 -117.207)" fill="none" stroke="#dee3fc" stroke-miterlimit="10" stroke-width="0.79"/><path d="M341.008,212.134V202.2a1.76,1.76,0,0,0-1.76-1.76H336.69a1.614,1.614,0,0,1-1.579-1.239,35.174,35.174,0,0,0-4.426-10.742,1.637,1.637,0,0,1,.213-2.034l1.8-1.8a1.761,1.761,0,0,0,0-2.49l-7.026-7.026a1.759,1.759,0,0,0-2.488,0l-1.8,1.8a1.641,1.641,0,0,1-2.034.213,35.15,35.15,0,0,0-10.745-4.431,1.615,1.615,0,0,1-1.239-1.579v-2.549a1.759,1.759,0,0,0-1.76-1.76h-9.937a1.759,1.759,0,0,0-1.76,1.76v2.549a1.615,1.615,0,0,1-1.239,1.579,35.183,35.183,0,0,0-10.748,4.43,1.641,1.641,0,0,1-2.034-.213L278.1,175.11a1.76,1.76,0,0,0-2.49,0l-7.025,7.026a1.761,1.761,0,0,0,0,2.49l1.8,1.8a1.639,1.639,0,0,1,.213,2.033,35.165,35.165,0,0,0-4.427,10.746,1.614,1.614,0,0,1-1.579,1.238h-2.555a1.76,1.76,0,0,0-1.76,1.76v9.937a1.76,1.76,0,0,0,1.76,1.761h2.556a1.612,1.612,0,0,1,1.578,1.238,35.227,35.227,0,0,0,4.429,10.743,1.638,1.638,0,0,1-.213,2.034l-1.8,1.8a1.761,1.761,0,0,0,0,2.49l7.025,7.026a1.761,1.761,0,0,0,2.49,0l1.8-1.8a1.637,1.637,0,0,1,2.033-.213,35.208,35.208,0,0,0,10.742,4.423,1.614,1.614,0,0,1,1.239,1.579v2.564a1.76,1.76,0,0,0,1.76,1.76h9.937a1.76,1.76,0,0,0,1.76-1.76v-2.565a1.612,1.612,0,0,1,1.239-1.578,35.218,35.218,0,0,0,10.741-4.424,1.639,1.639,0,0,1,2.033.213l1.8,1.8a1.759,1.759,0,0,0,2.488,0L332.7,232.2a1.761,1.761,0,0,0,0-2.49l-1.8-1.8a1.641,1.641,0,0,1-.213-2.034,35.181,35.181,0,0,0,4.427-10.742,1.614,1.614,0,0,1,1.579-1.238h2.559A1.76,1.76,0,0,0,341.008,212.134Zm-40.37,21.47a26.434,26.434,0,1,1,26.422-26.445A26.429,26.429,0,0,1,300.637,233.6Z" transform="translate(-155.473 -96.25)" fill="#dee3fc"/></g><g transform="translate(14.295)"><circle cx="4.817" cy="4.817" r="4.817" transform="translate(49.197 415.472)" fill="#a4afff"/><circle cx="4.817" cy="4.817" r="4.817" transform="translate(694.531 283.851)" fill="#a4afff"/><circle cx="4.817" cy="4.817" r="4.817" transform="translate(684.897 111.846)" fill="#a4afff"/><circle cx="3.022" cy="3.022" r="3.022" transform="translate(513.5 55.18)" fill="#a4afff"/><path d="M200.541,98.308a3.022,3.022,0,1,1-3.022-3.022A3.022,3.022,0,0,1,200.541,98.308Z" transform="translate(-127.67 -80.356)" fill="#a4afff"/><path d="M247.551,229.1a3.022,3.022,0,1,1-3.022-3.022A3.022,3.022,0,0,1,247.551,229.1Z" transform="translate(-107.804 -25.082)" fill="#a4afff"/><path d="M169.63,384.512a3.022,3.022,0,1,1-3.022-3.02A3.021,3.021,0,0,1,169.63,384.512Z" transform="translate(-140.733 40.593)" fill="#a4afff"/><circle cx="4.817" cy="4.817" r="4.817" transform="translate(623.87 418.318)" fill="#a4afff"/><circle cx="4.817" cy="4.817" r="4.817" transform="translate(726.296 418.318)" fill="#a4afff"/><circle cx="4.817" cy="4.817" r="4.817" transform="translate(151.103)" fill="#a4afff"/><path d="M494.579,244.151a6.445,6.445,0,1,1-6.446-6.446A6.445,6.445,0,0,1,494.579,244.151Z" transform="translate(-6.304 -20.171)" fill="#a4afff"/><path d="M160.412,188.124a6.445,6.445,0,1,1-6.444-6.444A6.445,6.445,0,0,1,160.412,188.124Z" transform="translate(-147.522 -43.847)" fill="#a4afff"/></g><g transform="translate(0 38.073)"><rect width="9.995" height="9.995" rx="0.664" fill="#fff"/><rect width="9.995" height="9.995" rx="0.664" transform="translate(13.369)" fill="#fff"/><rect width="9.995" height="9.995" rx="0.664" transform="translate(26.739)" fill="#fff"/></g><g transform="translate(680.825 389.074)"><rect width="9.995" height="9.995" rx="0.664" fill="#dee3fc"/><rect width="9.995" height="9.995" rx="0.664" transform="translate(13.369)" fill="#dee3fc"/><rect width="9.995" height="9.995" rx="0.664" transform="translate(26.739)" fill="#dee3fc"/></g><g transform="translate(62.755 383.597)"><rect width="9.995" height="9.995" rx="0.664" fill="#dee3fc"/><rect width="9.995" height="9.995" rx="0.664" transform="translate(13.369)" fill="#dee3fc"/><rect width="9.995" height="9.995" rx="0.664" transform="translate(26.739)" fill="#dee3fc"/></g></g><g transform="translate(385.779 80.812)"><rect width="253.222" height="489.174" rx="21.349" fill="#3945ba"/><rect width="243.74" height="477.939" rx="18.7" transform="translate(4.741 4.283)" fill="#fff"/><path d="M519.233,104.466v424.24a18.016,18.016,0,0,1-18.016,18.016H314.849a18.016,18.016,0,0,1-18.016-18.016V104.466a18.016,18.016,0,0,1,18.016-18.017h31.078A4.557,4.557,0,0,1,350,88.966l3.3,6.588a8.9,8.9,0,0,0,7.984,4.944h93.5a8.9,8.9,0,0,0,7.984-4.944l3.3-6.588a4.557,4.557,0,0,1,4.074-2.517h31.078A18.016,18.016,0,0,1,519.233,104.466Z" transform="translate(-281.422 -74.414)" fill="#dee3fc"/><path d="M425.892,92.791h-75.3a3.17,3.17,0,0,1-3.17-3.171h0a3.17,3.17,0,0,1,3.17-3.171h75.3a3.171,3.171,0,0,1,3.171,3.171h0A3.171,3.171,0,0,1,425.892,92.791Z" transform="translate(-260.045 -74.414)" fill="#dee3fc"/><rect width="191.41" height="83.009" rx="8.379" transform="translate(28.736 374.573)" fill="none" stroke="#698bd1" stroke-linecap="round" stroke-linejoin="round" stroke-width="1" stroke-dasharray="2.837"/><rect width="100.322" height="58.281" rx="6.044" transform="translate(108.009 195.606)" fill="none" stroke="#698bd1" stroke-linecap="round" stroke-linejoin="round" stroke-width="1" stroke-dasharray="2.837"/><g transform="translate(28.736 260.35)"><rect width="192.171" height="92.9" rx="7.201" transform="translate(6.968 7.516)" fill="#4b5a9b"/><path d="M497.61,271.228v72.453A10.218,10.218,0,0,1,487.382,353.9H316.428A10.218,10.218,0,0,1,306.2,343.681V271.228A10.23,10.23,0,0,1,316.428,261H487.382A10.23,10.23,0,0,1,497.61,271.228Z" transform="translate(-306.2 -261)" fill="#7f95f4"/><rect width="64.194" height="64.194" rx="4.861" transform="translate(8.844 21.152)" fill="#fff"/><g transform="translate(79.273 24.907)"><path d="M408.463,282.875H364.108a2.183,2.183,0,0,1-2.184-2.184h0a2.183,2.183,0,0,1,2.184-2.184h44.355a2.184,2.184,0,0,1,2.185,2.184h0A2.184,2.184,0,0,1,408.463,282.875Z" transform="translate(-361.924 -278.508)" fill="#b2c1f9"/><path d="M388.251,289.006H364.108a2.184,2.184,0,0,1-2.184-2.184h0a2.184,2.184,0,0,1,2.184-2.185h24.143a2.184,2.184,0,0,1,2.184,2.185h0A2.184,2.184,0,0,1,388.251,289.006Z" transform="translate(-361.924 -275.918)" fill="#b2c1f9"/><path d="M452.653,289.006H387.325a2.184,2.184,0,0,1-2.184-2.184h0a2.185,2.185,0,0,1,2.184-2.185h65.328a2.185,2.185,0,0,1,2.184,2.185h0A2.185,2.185,0,0,1,452.653,289.006Z" transform="translate(-352.113 -275.918)" fill="#b2c1f9"/><path d="M401.462,295.134H364.108a2.184,2.184,0,0,1-2.184-2.184h0a2.183,2.183,0,0,1,2.184-2.184h37.355a2.184,2.184,0,0,1,2.184,2.184h0A2.185,2.185,0,0,1,401.462,295.134Z" transform="translate(-361.924 -273.327)" fill="#b2c1f9"/><path d="M419.63,295.134H396.147a2.184,2.184,0,0,1-2.184-2.184h0a2.183,2.183,0,0,1,2.184-2.184H419.63a2.184,2.184,0,0,1,2.184,2.184h0A2.185,2.185,0,0,1,419.63,295.134Z" transform="translate(-348.384 -273.327)" fill="#b2c1f9"/><path d="M439.671,295.134H418.045a2.185,2.185,0,0,1-2.184-2.184h0a2.184,2.184,0,0,1,2.184-2.184h21.626a2.184,2.184,0,0,1,2.184,2.184h0A2.185,2.185,0,0,1,439.671,295.134Z" transform="translate(-339.13 -273.327)" fill="#b2c1f9"/><path d="M462.465,301.263H364.108a2.183,2.183,0,0,1-2.184-2.184h0a2.183,2.183,0,0,1,2.184-2.184h98.357a2.184,2.184,0,0,1,2.184,2.184h0A2.184,2.184,0,0,1,462.465,301.263Z" transform="translate(-361.924 -270.737)" fill="#b2c1f9"/><path d="M418.24,307.392H364.108a2.183,2.183,0,0,1-2.184-2.184h0a2.183,2.183,0,0,1,2.184-2.184H418.24a2.184,2.184,0,0,1,2.184,2.184h0A2.184,2.184,0,0,1,418.24,307.392Z" transform="translate(-361.924 -268.147)" fill="#b2c1f9"/><path d="M443.792,307.392h-35.5a2.184,2.184,0,0,1-2.184-2.184h0a2.184,2.184,0,0,1,2.184-2.184h35.5a2.184,2.184,0,0,1,2.184,2.184h0A2.184,2.184,0,0,1,443.792,307.392Z" transform="translate(-343.251 -268.147)" fill="#b2c1f9"/><path d="M395.913,313.521h-31.8a2.183,2.183,0,0,1-2.184-2.184h0a2.184,2.184,0,0,1,2.184-2.184h31.8a2.184,2.184,0,0,1,2.184,2.184h0A2.183,2.183,0,0,1,395.913,313.521Z" transform="translate(-361.924 -265.557)" fill="#b2c1f9"/><path d="M424.321,313.521h-31.8a2.183,2.183,0,0,1-2.184-2.184h0a2.184,2.184,0,0,1,2.184-2.184h31.8a2.184,2.184,0,0,1,2.184,2.184h0A2.183,2.183,0,0,1,424.321,313.521Z" transform="translate(-349.919 -265.557)" fill="#b2c1f9"/><path d="M438.729,313.521H420.274a2.183,2.183,0,0,1-2.184-2.184h0a2.184,2.184,0,0,1,2.184-2.184h18.455a2.185,2.185,0,0,1,2.184,2.184h0A2.184,2.184,0,0,1,438.729,313.521Z" transform="translate(-338.188 -265.557)" fill="#b2c1f9"/><path d="M408.463,319.652H364.108a2.184,2.184,0,0,1-2.184-2.185h0a2.184,2.184,0,0,1,2.184-2.184h44.355a2.185,2.185,0,0,1,2.185,2.184h0A2.186,2.186,0,0,1,408.463,319.652Z" transform="translate(-361.924 -262.967)" fill="#b2c1f9"/><path d="M446.423,282.875H402.067a2.183,2.183,0,0,1-2.184-2.184h0a2.183,2.183,0,0,1,2.184-2.184h44.357a2.184,2.184,0,0,1,2.184,2.184h0A2.184,2.184,0,0,1,446.423,282.875Z" transform="translate(-345.883 -278.508)" fill="#b2c1f9"/></g><path d="M497.61,271.228v3.044H306.2v-3.044A10.23,10.23,0,0,1,316.428,261H487.382A10.23,10.23,0,0,1,497.61,271.228Z" transform="translate(-306.2 -261)" fill="#3052ce"/><g transform="translate(150.589 4.505)"><path d="M416.8,266.537a2.371,2.371,0,1,1-2.372-2.37A2.372,2.372,0,0,1,416.8,266.537Z" transform="translate(-412.055 -264.167)" fill="#dee3fc"/><path d="M425.326,266.537a2.371,2.371,0,1,1-2.371-2.37A2.372,2.372,0,0,1,425.326,266.537Z" transform="translate(-408.451 -264.167)" fill="#dee3fc"/><path d="M433.854,266.537a2.371,2.371,0,1,1-2.371-2.37A2.372,2.372,0,0,1,433.854,266.537Z" transform="translate(-404.847 -264.167)" fill="#dee3fc"/></g></g><g transform="translate(39.942 195.659)"><rect width="58.228" height="58.228" rx="7.151" fill="none" stroke="#495ad6" stroke-miterlimit="10" stroke-width="0.896"/><g transform="translate(11.642 20.692)"><path d="M330.65,230.071l-8.389,8.389,8.455,8.455" transform="translate(-322.26 -230.071)" fill="none" stroke="#495ad6" stroke-linecap="round" stroke-linejoin="round" stroke-width="1.672"/><path d="M340.946,230.071l8.389,8.389-8.455,8.455" transform="translate(-314.392 -230.071)" fill="none" stroke="#495ad6" stroke-linecap="round" stroke-linejoin="round" stroke-width="1.672"/><line x1="7.856" y2="16.844" transform="translate(13.544)" fill="none" stroke="#495ad6" stroke-linecap="round" stroke-linejoin="round" stroke-width="1.672"/></g></g><g transform="translate(28.736 41.896)"><rect width="191.41" height="141.733" rx="8.18" fill="#b2c1f9"/><circle cx="27.741" cy="27.741" r="27.741" transform="translate(124.904 9.688)" fill="#f0f4ff"/><path d="M418.713,239.672H317.837A11.642,11.642,0,0,1,306.2,228.035v-18.65l44.143-76.465a6,6,0,0,1,10.385,0L394.06,190.65l24.753,42.877A5.883,5.883,0,0,1,418.713,239.672Z" transform="translate(-306.2 -97.939)" fill="#fff"/><path d="M444.526,230.282H348.06l28.31-49.023,15.25-26.418a5.4,5.4,0,0,1,9.346,0Z" transform="translate(-288.51 -88.549)" fill="#f0f4ff"/></g></g><g transform="translate(607.007 271.097)"><g transform="translate(80.494 213.463)"><rect width="74.368" height="111.764" fill="#3b47bc"/><rect width="28.475" height="111.764" transform="translate(102.844 111.764) rotate(180)" fill="#495ad6"/><g transform="translate(78.445 4.292)"><rect width="20.907" height="3.567" fill="#b2c1f9"/><rect width="20.907" height="3.567" transform="translate(0 7.663)" fill="#b2c1f9"/><rect width="20.907" height="3.567" transform="translate(0 15.325)" fill="#b2c1f9"/><rect width="20.907" height="3.567" transform="translate(0 22.987)" fill="#b2c1f9"/><rect width="20.907" height="3.567" transform="translate(0 30.65)" fill="#b2c1f9"/><rect width="20.907" height="3.567" transform="translate(0 38.312)" fill="#b2c1f9"/><rect width="20.907" height="3.567" transform="translate(0 45.975)" fill="#b2c1f9"/><rect width="20.907" height="3.567" transform="translate(0 53.637)" fill="#b2c1f9"/><rect width="20.907" height="3.567" transform="translate(0 61.3)" fill="#b2c1f9"/><rect width="20.907" height="3.567" transform="translate(0 68.962)" fill="#b2c1f9"/><rect width="20.907" height="3.567" transform="translate(0 76.625)" fill="#b2c1f9"/><rect width="20.907" height="3.567" transform="translate(0 84.287)" fill="#b2c1f9"/><rect width="20.907" height="3.567" transform="translate(0 91.95)" fill="#b2c1f9"/><rect width="20.907" height="3.567" transform="translate(0 99.612)" fill="#b2c1f9"/></g></g><path d="M489.615,444.839h37.8s2.113-6.73-2.465-15.068c0,0-3.042,2.44-12.155.789a40.534,40.534,0,0,1-6.429,4.493C503.721,436.329,488.6,439.3,489.615,444.839Z" transform="translate(-421.201 -119.613)" fill="#281616"/><path d="M491.709,367.725c2.441,14.566,13.705,63.846,18.548,92.958,8.85.754,13.1-.262,15.353-.781-.441-10.152-1.315-34.434-1.212-45.083.168-18,1.013-41.73-6.91-54.754l-26.64,2.1c.162,1.406.31,2.551.44,3.369C491.416,366.313,491.562,367.038,491.709,367.725Z" transform="translate(-420.659 -149.071)" fill="#002c54"/><path d="M441.559,444.839h37.8s2.112-6.73-2.465-15.068c0,0-3.043,2.44-12.155.789a40.574,40.574,0,0,1-6.43,4.493C455.665,436.329,440.54,439.3,441.559,444.839Z" transform="translate(-441.509 -119.613)" fill="#281616"/><path d="M457.066,462.433A43.364,43.364,0,0,0,472,463.768c2.01-11.7,5.184-37.45,8.041-49.518,4.433-18.76,8.772-44.559,5.757-53.763l-26.2-6.581C459.5,354.736,457.369,433.693,457.066,462.433Z" transform="translate(-434.935 -151.673)" fill="#052635"/><path d="M560.63,337.687h0c-.526-5.178-1.132-8.961-1.132-8.961l-29.277,7.166-24.87,5.666c-9.22,2.054-20.357,4.527-30.177,6.746-11.018,2.5-18.333,10.873-15.919,21.907l2.761,13.382c15.411-.211,87.867-7.156,94.064-10.285C563.082,369.771,565.189,357.269,560.63,337.687Z" transform="translate(-434.206 -162.314)" fill="#052635"/><path d="M591.352,338.214h0a40.447,40.447,0,0,0-3.052-10.735l-27.358,8.94-24.87,5.666c-9.22,2.054-20.359,4.527-30.178,6.746-11.018,2.5-18.333,10.873-15.92,21.907l2.763,13.382c15.41-.211,79.822-2.455,94.064-10.285C593.675,370.054,595.911,357.8,591.352,338.214Z" transform="translate(-421.223 -162.841)" fill="#002c54"/><g transform="translate(45.144 130.808)"><path d="M516.282,306.3s13-5.874,16.582.017c1.959,3.225.6,9.216-3.831,11.731s-29.5,13.115-53.151,19.026a57.423,57.423,0,0,0-2.639-6.749,124.547,124.547,0,0,0,21.161-11.81A134.89,134.89,0,0,1,516.282,306.3Z" transform="translate(-473.243 -303.698)" fill="#e5918f"/></g><path d="M509.093,276.985,497.948,321.5s1.151,11.253,12.516,5.73,18.9-40.988,18.9-40.988Z" transform="translate(-417.659 -184.18)" fill="#e5918f"/><path d="M526.161,309.495c-1.378-.333-2.694-.7-3.963-1.078q-1.95-.572-3.71-1.189c-10.59-3.63-16.313-7.991-16.313-7.991,3.329-14.473,7.341-24.191,10.907-30.6a4.506,4.506,0,0,0,.27-.475l.285-.475a27.833,27.833,0,0,1,7.753-8.069c.317-.222.617-.428.935-.65l1.316,23.241.222,2.393Z" transform="translate(-415.872 -191.793)" fill="#fff"/><path d="M521.315,302.733c-1.378-.333-2.694-.7-3.963-1.078q-1.95-.572-3.71-1.189c2.224-15.656,4.234-25.493,4.234-25.493l1.141,2.869Z" transform="translate(-411.026 -185.03)" fill="#c7e5f2"/><path d="M587.039,271.909c-.27,6.88-1.475,17.93-2.521,29.027-.333,3.52-.65,7.055-.92,10.463-.189,2.124-3.391,13.461-3.519,15.489-.57,9.7-5.326,16.963-.824,31.738a23.261,23.261,0,0,1,1.347,6.817c0,1.014-1.316,2.077-1.838,2.363-1.888,1.094-5.6,1.854-10.1,2.41h-.016a261.983,261.983,0,0,1-28.029,1.283c-9.687,0-24.224-1.538-26.063-3.979-1.68-2.235-.127-5.486.666-9.972,3.568-20.245,2.3-30.8,2.077-45.419,0-.364-.016-.73-.016-1.11-.364-22.544-1.855-41.837-.808-48.8.317-.222.617-.428.935-.65,1.538-1.047,3.044-1.982,4.5-2.807.127-.063.286-.158.444-.253.444-.253.9-.491,1.332-.73a5.14,5.14,0,0,1,.508-.253,110.5,110.5,0,0,1,10.812-4.265c.349-.111.666-.222.936-.3,2.583-.158,5.389-.189,8.417-.11,2.632.078,6.659.427,11.034,1h.016a114.013,114.013,0,0,1,14.648,2.741s.048.017.08.033c.808.253,6.056,2.219,11.526,8.069A39.048,39.048,0,0,1,587.039,271.909Z" transform="translate(-410.957 -194.395)" fill="#fff"/><path d="M563.579,348.541a23.261,23.261,0,0,1,1.347,6.817c0,1.014-1.316,2.077-1.838,2.363-1.888,1.094-5.6,1.854-10.1,2.41,1.855-.223,5.056-3.165,5.057-5.818,0-1.859-2.41-14.411-1.744-22.513.666-8.085,1.982-20.958-.524-31.263-2.521-10.3-4.882-23.86-4.882-23.86l14.125,8.53s1.824,2.552,3.821,5.643c-.333,3.52-.65,7.055-.92,10.463C567.733,303.437,559.077,333.766,563.579,348.541Z" transform="translate(-395.283 -184.31)" fill="#c7e5f2"/><g transform="translate(99.519)"><path d="M516.13,224.354s1.222,14.774,6.12,15.767,3.7-5.285,3.7-5.285l-.684-7.015Z" transform="translate(-509.494 -206.421)" fill="#002c54"/><path d="M533.923,272.987c-9.591-1.142-6.009-10.463-4.693-12.6.349-.111,2-.617,2.124-.7a.053.053,0,0,1,.033-.016,2.629,2.629,0,0,0,.744-1.11c.936-2.458.508-7.356.477-7.673v-.9c.158-.586.317-1.142.444-1.664l5.042-3.963,10.668-8.388s-2.837,14.031-.555,22.877a3.333,3.333,0,0,0,1.411,2.125c0,.016.016,0,.016,0a2.583,2.583,0,0,0,1.063.38C553.312,262.586,549.666,274.858,533.923,272.987Z" transform="translate(-504.699 -201.513)" fill="#e5918f"/><path d="M541,242.236s-.09,9.364-10.253,13.668c.945-2.443.509-7.345.479-7.659l4.258-3.343Z" transform="translate(-503.318 -198.864)" fill="#cc6362"/><path d="M517.776,230.187s2.218,30.653,10.495,33.257c0,0,10.544.993,18.115-9.191,2.182-2.935,4.938-3.593,5.838-7.137,1.462-5.756,3.525-16.371.893-22.769C549.37,215.237,518.132,208,517.776,230.187Z" transform="translate(-508.798 -210.152)" fill="#e5918f"/><path d="M555.911,220.885c-.135-5.568-5.771-7.648-5.771-7.648-5.611-2.626-17.27-1.494-29.291,1.188-2.818.629-6.355-1.1-8.324.265-2.379,1.65-.01,9.19-.01,9.19,4.638,14.042,21.7,9.476,26.827,7.743,1.219,3.616,1.063,8.642,4.1,11.234,1.731,1.478,4.743,1.519,7.8,1.01.377.716,1.792,1.347,2.08,2.33.964,3.283.827,8.415.8,12.377l1.447-.707C555.76,256.794,570.726,221.345,555.911,220.885Z" transform="translate(-511.465 -211.748)" fill="#002c54"/><g transform="translate(10.207 24.45)"><path d="M525.9,234.289c.432,2.545-.822,4.881-2.8,5.218s-3.938-1.452-4.372-4,.822-4.882,2.8-5.22S525.467,231.743,525.9,234.289Z" transform="translate(-518.64 -228.38)" fill="none" stroke="#fff" stroke-miterlimit="10" stroke-width="0.501"/><path d="M532.931,232.975c.434,2.545-.821,4.882-2.8,5.22s-3.939-1.452-4.372-4,.822-4.882,2.8-5.22S532.5,230.43,532.931,232.975Z" transform="translate(-515.669 -228.935)" fill="none" stroke="#fff" stroke-miterlimit="10" stroke-width="0.501"/><path d="M523.744,233.252s.438-.713,2.741-.512" transform="translate(-516.483 -227.343)" fill="none" stroke="#fff" stroke-miterlimit="10" stroke-width="0.501"/><line y1="1.366" x2="8.549" transform="translate(17.348 3.284)" fill="none" stroke="#fff" stroke-miterlimit="10" stroke-width="0.501"/></g><g transform="translate(34.289 25.679)"><path d="M538.012,242.706c5.888,2.255,7.726-12.236,2.135-12.879-4.239-.487-4.413,5.429-4.413,5.429S534.65,241.419,538.012,242.706Z" transform="translate(-535.568 -229.799)" fill="#e5918f"/></g><g transform="translate(36.681 27.892)" opacity="0.5"><path d="M539.243,231.355s-3.478,1.841-1.246,7.49" transform="translate(-537.25 -231.355)" fill="none" stroke="#cc6362" stroke-miterlimit="10" stroke-width="0.724"/><path d="M540.146,233.289a3.075,3.075,0,0,0-2.859,2.123" transform="translate(-537.234 -230.538)" fill="none" stroke="#cc6362" stroke-miterlimit="10" stroke-width="0.724"/></g></g><path d="M586.016,323.59v.014c-2.588,3-12.406,5.19-17.131,1.037-1.485-1.323-3.161-4.808-4.807-9.133-4.19-11.058-8.154-27.6-8.154-27.6L577.9,276.678s2.827,12.675,5.262,24.72c0,0,.021.122.067.336.792,3.858,1.531,7.654,2.11,10.91a1.5,1.5,0,0,1,.043.259A46.147,46.147,0,0,1,586.016,323.59Z" transform="translate(-393.159 -184.309)" fill="#e5918f"/><path d="M550.089,280.743c2.122,8.823,8.792,25.544,8.792,25.544,4.672.775,10.935-.085,16.127-1.95a29.713,29.713,0,0,0,10.273-6.672s-4.424-12.431-8.393-21.363c-3.564-8.018-5.7-11.011-7.245-12.6a34.921,34.921,0,0,0-8.725-6.488Z" transform="translate(-395.624 -192.535)" fill="#fff"/><path d="M576.47,287.233l-12.894-5.564-10.16-26.179s1.862.566,4.315,1.556h.011c.047.023.152.058.33.129a1.348,1.348,0,0,1,.188.083c2.192,1.026,10.691,6.035,16.573,24.234l.141.46c.625,2.1,1.084,3.784,1.332,4.656.024.083.048.165.071.259C576.411,286.986,576.435,287.115,576.47,287.233Z" transform="translate(-394.219 -193.263)" fill="#fff"/><g transform="translate(110.393 116.764)"><path d="M597.151,316.343v.014c-.189,1.609-.633,2.766-1.428,3.175-.127.081-1.93,1.155-2.057,1.236a109.675,109.675,0,0,1-13.62,7.043,493.457,493.457,0,0,1-47.563,17.09,56.06,56.06,0,0,0-2.909-6.639,124.606,124.606,0,0,0,20.648-12.675c10.25-7.823,24.992-17.326,24.992-17.326l3.723-4.379s13.233-12.18,15.358-9.731c0,0,.021.122.067.336.316,1.27,1.366,5.944,2.11,10.91a1.508,1.508,0,0,1,.043.259A46.147,46.147,0,0,1,597.151,316.343Z" transform="translate(-514.687 -293.826)" fill="#e5918f"/><path d="M535.516,325.078a8.186,8.186,0,0,1-5.224,1c-1.458-.306-2.047-.9-3.125-1.093a24.281,24.281,0,0,1-5.373-1.242c-1.421-.7-1.976-.775-1.926.653s2.855,2.662,3.616,3.057a7.206,7.206,0,0,1,1.818,1.821c.1.159-4.676,2.66-5.961,2.152a3.722,3.722,0,0,0-.165,1.794c.218.642,1.2.868,1.278,1.191s-.226.982-.013,1.5,1.09.514,1.444,1.346-.036.846.222,1.714,1.369,1.026,1.579,1.472.1.972.565,1.28,4.764-1.071,6.333-1.743,5.761-6.709,10.4-8.766Z" transform="translate(-519.109 -281.386)" fill="#e5918f"/></g><path d="M556.012,344.449H522.585v-3.271h33.427a1.635,1.635,0,0,1,1.636,1.635h0A1.636,1.636,0,0,1,556.012,344.449Z" transform="translate(-407.247 -157.052)" fill="#375f84"/><path d="M563.983,363.088h-83.7a2.23,2.23,0,0,1-2.15-1.635l-17.131-61.665a2.143,2.143,0,0,1,2.064-2.716h80.936a4.2,4.2,0,0,1,4.044,3.076l17.068,61.443A1.181,1.181,0,0,1,563.983,363.088Z" transform="translate(-433.303 -175.691)" fill="#375f84"/><path d="M561.852,363.088H478.158a2.233,2.233,0,0,1-2.151-1.635l-17.129-61.665a2.143,2.143,0,0,1,2.064-2.716h80.934a4.2,4.2,0,0,1,4.046,3.076l17.068,61.443A1.181,1.181,0,0,1,561.852,363.088Z" transform="translate(-434.203 -175.691)" fill="#467cdb"/></g><g transform="translate(241.092 351.032)"><path d="M298.064,323.214l9.7-9.94s.336-4.433.863-5.367,1.892-4.4,2.571-4.774a3.512,3.512,0,0,1,2.039,0,9.332,9.332,0,0,1,1.95-.454,5.719,5.719,0,0,1,1.734.552s1.45-.1,2.053-.1a1.289,1.289,0,0,1,.8.169,42.818,42.818,0,0,1,3.47-3.595c1.132-.9,2.864-2.574,3.377-2.566.484.006.7.856.344,1.763a10.043,10.043,0,0,1-1.885,2.367l-4.417,6.693a9.492,9.492,0,0,0,1.157-.553c.4-.252,3.1-2.768,3.261-2.869s1.37-.9,2.076-.1-4.625,7.188-5.481,8.045-5.754,3.336-5.754,3.336-5.173,9.305-5.676,9.908S298.064,323.214,298.064,323.214Z" transform="translate(-136.215 -255.597)" fill="#e49191"/><path d="M315.177,288.091s-5.416,31.371-10.513,32.1c0,0-20.35.821-24.883-23.867-3.932-21.409,11.837-25.974,19.212-24.336S316.76,274.69,315.177,288.091Z" transform="translate(-144.203 -266.355)" fill="#e49191"/><path d="M297.817,307.318s-2.851,3.842-3.85,13.15a30.211,30.211,0,0,1-16.289-2.811,115.291,115.291,0,0,0,4.727-27.385" transform="translate(-144.83 -258.5)" fill="#e49191"/><path d="M292.707,268.318c-11.12,2.457-10.231,9.385-10.231,9.385-5.205,1.289-6.325,3.438-6.282,13.048s3.521,21.15,5.439,22.089,12.789.984,13.7.654,4.712-9.146,3.825-10.7.044-7.651,2.576-7.881,2.036,3.693,2.036,3.693l2.081-.457,1.608-3.941c14.7.875,18.492-15.872,18.492-15.872C322.416,276.038,303.829,265.861,292.707,268.318Z" transform="translate(-145.458 -267.938)" fill="#002c54"/><path d="M202.889,417.531l11.244,1.625-3.724,13.13-12.177-3.071s-4.955-6.716,2.525-11.684A4.1,4.1,0,0,1,202.889,417.531Z" transform="translate(-179.084 -204.781)" fill="#e5918f"/><path d="M283.671,408.926,267.1,358.745s-5.023-1.79-7.6,0c0,0-17.265,9.284-15.424,35.756,1.388,19.956,5.6,41.6,7.309,50.28l-44.216-1.636a15.066,15.066,0,0,0-1.926,14.924s55.561,14.943,63.387,16.323c6.36,1.124,13.323,1.989,16.684-.892C291.239,468.428,283.671,408.926,283.671,408.926Z" transform="translate(-175.942 -229.899)"/><path d="M239.69,417.531l11.244,1.625-3.724,13.13-12.177-3.071s-4.955-6.716,2.525-11.684A4.1,4.1,0,0,1,239.69,417.531Z" transform="translate(-163.532 -204.781)" fill="#e5918f"/><path d="M240.819,425.417c-.252,2.585,2.01,4.912,1.6,5.557s-7.972,13.326-7.972,13.326,5.706,2.485,4.786,6.074H224.778s-3.773-3.406-3.682-8.284a41.92,41.92,0,0,1,3.559-10.584c2.576-4.971,8.436-16.192,8.436-16.192a8.181,8.181,0,0,1,4.817.092,29.215,29.215,0,0,1,6.991,3.127S241.441,419.029,240.819,425.417Z" transform="translate(-168.742 -205.782)" fill="#467cdb"/><path d="M348.609,462.723c-3.568-13.313-37.137-70.147-48.493-85.492-23.325-10.128-48.186-18.721-48.186-18.721-10.281,2.455-15.346,23.173-9.514,36.983,4,9.476,29.379,33.323,44.921,47.363l-43.127-.051s-5.082,7.594-.477,14.806c0,0,71.729,16.31,78.021,17.23s20.41,0,20.41,0S351.612,473.93,348.609,462.723Z" transform="translate(-160.773 -229.663)" fill="#002c54"/><path d="M204.018,425.417c-.252,2.585,2.01,4.912,1.6,5.557s-7.974,13.326-7.974,13.326,5.707,2.485,4.787,6.074H187.977s-3.774-3.406-3.682-8.284a41.92,41.92,0,0,1,3.559-10.584c2.576-4.971,8.436-16.192,8.436-16.192a8.179,8.179,0,0,1,4.817.092,29.247,29.247,0,0,1,6.991,3.127S204.64,419.029,204.018,425.417Z" transform="translate(-184.294 -205.782)" fill="#467cdb"/><path d="M370.158,308.679,347.025,349.37l-16.568-16.513-13.712,20.411,3.982,1.912-1.433,1.192s31.971,15.57,35.8,12.136,21.682-55.2,21.682-55.2Z" transform="translate(-128.32 -250.721)" fill="#e49191"/><path d="M365.935,337.651s-4.367,18.423-13.1,27.157L330.484,356.3s-10.371,17.441-20.514,30.813c-3.9,5.164-5.192,12.433-9.773,13.387-.285-.1-.555-.185-.839-.256-12.419-3.727-30.742.228-45.865-5.392-16.7-6.217-13.458-9.716-13.458-9.716s10.129-18.252,15.876-37.585a230.429,230.429,0,0,0,5.52-22.662A26.093,26.093,0,0,1,283.4,303.878c.128-.014.242-.043.37-.057,12.661-1.608,45.808,2.3,52.252,5.064S365.935,337.651,365.935,337.651Z" transform="translate(-160.845 -252.932)" fill="#467cdb"/><path d="M312.537,341.479s-10.371,17.441-20.514,30.813c-3.9,5.164-5.192,12.433-9.773,13.387,2.006-.711,5.335-11.267,6.515-13.643s3.087-4.737,7.184-13.031,9.625-20.484,9.625-20.484Z" transform="translate(-142.898 -238.11)" fill="#5996ef"/><path d="M273.26,417.8a72.372,72.372,0,0,1,22.295,3.2" transform="translate(-146.697 -204.611)" fill="none" stroke="#000" stroke-miterlimit="10" stroke-width="1.065"/><path d="M371.979,300.315c-.374-.038-2.744,1.865-3.889,2.805l1.319-2.525a24.846,24.846,0,0,0,2.371-2.609c.629-.925.3-1.849-.2-1.9-.349-.036-2.435,1.62-3.643,2.6l.266-.508a24.856,24.856,0,0,0,2.371-2.609c.627-.925.3-1.849-.2-1.9s-4.508,3.319-4.508,3.319l-1.955,2.616,1.472-2.861a12.344,12.344,0,0,0,1.295-1.983c.516-1.034.144-1.352-.144-1.7s-2.989,1.667-3.679,2.471a41.711,41.711,0,0,0-3.046,4.527l-2.258,4.67c-.145-1.353-.371-3.669-.531-5.144-.231-2.127-2.155-2.63-2.222-1.6s-1.14,6.121-.9,8.88.7,4.569.876,6.121-1.437,4.653-1.437,4.653,6.437,4,7.5,2.8a50.278,50.278,0,0,0,4.424-5.643,30.057,30.057,0,0,0,2.519-5.69l2.012-4.3a24.854,24.854,0,0,0,2.372-2.609C372.8,301.288,372.474,300.363,371.979,300.315Z" transform="translate(-112.852 -257.334)" fill="#e49191"/></g><g transform="translate(785.486 264.447)"><path d="M651.219,207.074H575.73a8.76,8.76,0,0,0-8.76,8.76v17.832a8.764,8.764,0,0,0,7.655,8.692,1.261,1.261,0,0,1,1.105,1.253v9.763a.581.581,0,0,0,1.053.337l7.689-10.752a1.273,1.273,0,0,1,1.036-.533h65.711a8.76,8.76,0,0,0,8.76-8.76V215.834A8.76,8.76,0,0,0,651.219,207.074Z" transform="translate(-566.97 -207.074)" fill="none" stroke="#fff" stroke-miterlimit="10" stroke-width="0.896"/><g transform="translate(14.573 14.765)"><path d="M582.983,220.338a2.884,2.884,0,1,1-2.885-2.885A2.884,2.884,0,0,1,582.983,220.338Z" transform="translate(-577.214 -217.453)" fill="none" stroke="#fff" stroke-miterlimit="10" stroke-width="0.896"/><path d="M593.192,220.338a2.884,2.884,0,1,1-2.884-2.885A2.884,2.884,0,0,1,593.192,220.338Z" transform="translate(-572.9 -217.453)" fill="none" stroke="#fff" stroke-miterlimit="10" stroke-width="0.896"/><path d="M603.4,220.338a2.884,2.884,0,1,1-2.884-2.885A2.883,2.883,0,0,1,603.4,220.338Z" transform="translate(-568.585 -217.453)" fill="none" stroke="#fff" stroke-miterlimit="10" stroke-width="0.896"/><path d="M613.611,220.338a2.884,2.884,0,1,1-2.885-2.885A2.884,2.884,0,0,1,613.611,220.338Z" transform="translate(-564.271 -217.453)" fill="none" stroke="#fff" stroke-miterlimit="10" stroke-width="0.896"/><path d="M623.82,220.338a2.884,2.884,0,1,1-2.884-2.885A2.883,2.883,0,0,1,623.82,220.338Z" transform="translate(-559.956 -217.453)" fill="none" stroke="#fff" stroke-miterlimit="10" stroke-width="0.896"/></g></g><g transform="translate(264.479 342.629)"><path d="M209.493,262.031h75.489a8.759,8.759,0,0,1,8.759,8.759v17.834a8.76,8.76,0,0,1-7.654,8.691,1.263,1.263,0,0,0-1.105,1.255v9.762a.58.58,0,0,1-1.053.337l-7.689-10.752a1.272,1.272,0,0,0-1.036-.532H209.493a8.76,8.76,0,0,1-8.76-8.76V270.79A8.76,8.76,0,0,1,209.493,262.031Z" transform="translate(-200.733 -262.031)" fill="none" stroke="#fff" stroke-miterlimit="10" stroke-width="0.896"/><g transform="translate(14.573 14.765)"><path d="M251.814,275.3a2.884,2.884,0,1,0,2.885-2.885A2.885,2.885,0,0,0,251.814,275.3Z" transform="translate(-193.719 -272.41)" fill="none" stroke="#fff" stroke-miterlimit="10" stroke-width="0.896"/><path d="M241.6,275.3a2.884,2.884,0,1,0,2.884-2.885A2.884,2.884,0,0,0,241.6,275.3Z" transform="translate(-198.034 -272.41)" fill="none" stroke="#fff" stroke-miterlimit="10" stroke-width="0.896"/><path d="M231.4,275.3a2.884,2.884,0,1,0,2.885-2.885A2.885,2.885,0,0,0,231.4,275.3Z" transform="translate(-202.348 -272.41)" fill="none" stroke="#fff" stroke-miterlimit="10" stroke-width="0.896"/><path d="M221.186,275.3a2.884,2.884,0,1,0,2.884-2.885A2.884,2.884,0,0,0,221.186,275.3Z" transform="translate(-206.663 -272.41)" fill="none" stroke="#fff" stroke-miterlimit="10" stroke-width="0.896"/><path d="M210.977,275.3a2.884,2.884,0,1,0,2.884-2.885A2.884,2.884,0,0,0,210.977,275.3Z" transform="translate(-210.977 -272.41)" fill="none" stroke="#fff" stroke-miterlimit="10" stroke-width="0.896"/></g></g><g transform="translate(577.807 195.827)"><path d="M572.311,186.317H434.723a13.739,13.739,0,0,1-13.739-13.739h0a13.739,13.739,0,0,1,13.739-13.739H572.311a13.739,13.739,0,0,1,13.739,13.739h0A13.739,13.739,0,0,1,572.311,186.317Z" transform="translate(-420.984 -158.838)" fill="#fff" stroke="#495ad6" stroke-miterlimit="10" stroke-width="0.896"/><g transform="translate(134.699 5.486)"><path d="M530.282,170a7.306,7.306,0,1,1-7.306-7.308A7.306,7.306,0,0,1,530.282,170Z" transform="translate(-515.669 -162.694)" fill="none" stroke="#495ad6" stroke-miterlimit="10" stroke-width="1.672"/><line x2="4.034" y2="4.034" transform="translate(12.472 12.473)" fill="none" stroke="#495ad6" stroke-linecap="round" stroke-miterlimit="10" stroke-width="1.672"/></g></g><g transform="translate(171.172 71.31)"><g transform="translate(293.658 469.132)"><rect width="56.544" height="56.544" rx="7.708" transform="translate(10.305)" fill="#193091"/><rect width="56.544" height="56.544" rx="7.708" fill="#495ad6"/><path d="M357.416,413.513l16.232,9.371a1.5,1.5,0,0,1,0,2.6l-16.232,9.371a1.5,1.5,0,0,1-2.253-1.3V414.815A1.5,1.5,0,0,1,357.416,413.513Z" transform="translate(-335.823 -395.914)" fill="#fff"/></g><g transform="translate(634.534 451.759)"><rect width="73.917" height="73.916" rx="10.076" transform="translate(13.471)" fill="#193091"/><rect width="73.917" height="73.916" rx="10.076" fill="#495ad6"/><path d="M618.681,404.256a8.881,8.881,0,1,1-8.881-8.881A8.881,8.881,0,0,1,618.681,404.256Z" transform="translate(-572.842 -386.121)" fill="#fff"/><path d="M631.175,428.253v13.111a2.146,2.146,0,0,1-2.144,2.145H596.293a2.146,2.146,0,0,1-2.145-2.145V428.253a18.513,18.513,0,0,1,18.514-18.512h0A18.512,18.512,0,0,1,631.175,428.253Z" transform="translate(-575.704 -380.05)" fill="#fff"/></g><g transform="translate(474.944 163.456)"><path d="M500.247,190.577H471.185A2.184,2.184,0,0,1,469,188.394h0a2.185,2.185,0,0,1,2.184-2.184h29.062a2.184,2.184,0,0,1,2.184,2.184h0A2.183,2.183,0,0,1,500.247,190.577Z" transform="translate(-469.001 -186.21)" fill="#f0f4ff"/><path d="M518.3,190.577H497.267a2.184,2.184,0,0,1-2.184-2.184h0a2.185,2.185,0,0,1,2.184-2.184H518.3a2.184,2.184,0,0,1,2.184,2.184h0A2.183,2.183,0,0,1,518.3,190.577Z" transform="translate(-457.979 -186.21)" fill="#f0f4ff"/><path d="M483.533,197.327H471.185A2.184,2.184,0,0,1,469,195.144h0a2.185,2.185,0,0,1,2.184-2.184h12.348a2.185,2.185,0,0,1,2.184,2.184h0A2.184,2.184,0,0,1,483.533,197.327Z" transform="translate(-469.001 -183.357)" fill="#f0f4ff"/><path d="M523.475,197.327H485.017a2.184,2.184,0,0,1-2.184-2.184h0a2.185,2.185,0,0,1,2.184-2.184h38.458a2.184,2.184,0,0,1,2.184,2.184h0A2.183,2.183,0,0,1,523.475,197.327Z" transform="translate(-463.156 -183.357)" fill="#f0f4ff"/><path d="M509.494,204.077H471.185A2.184,2.184,0,0,1,469,201.894h0a2.185,2.185,0,0,1,2.184-2.184h38.309a2.184,2.184,0,0,1,2.184,2.184h0A2.183,2.183,0,0,1,509.494,204.077Z" transform="translate(-469.001 -180.505)" fill="#f0f4ff"/><path d="M515.719,204.077H503.372a2.184,2.184,0,0,1-2.185-2.184h0a2.185,2.185,0,0,1,2.185-2.184h12.347a2.184,2.184,0,0,1,2.184,2.184h0A2.183,2.183,0,0,1,515.719,204.077Z" transform="translate(-455.399 -180.505)" fill="#f0f4ff"/></g><g transform="translate(31.293 328.785)"><rect width="112.331" height="62.091" rx="3.823" fill="#193091"/><line x2="102.783" transform="translate(4.774 8.388)" fill="none" stroke="#fff" stroke-linecap="round" stroke-miterlimit="10" stroke-width="0.896"/><circle cx="1.245" cy="1.245" r="1.245" transform="translate(103.599 2.876)" fill="#fff"/><circle cx="1.245" cy="1.245" r="1.245" transform="translate(97.108 2.876)" fill="#fff"/><circle cx="1.245" cy="1.245" r="1.245" transform="translate(90.618 2.876)" fill="#fff"/><g transform="translate(4.774 13.307)"><path d="M179.657,315.219H162.216A1.719,1.719,0,0,1,160.5,313.5h0a1.72,1.72,0,0,1,1.719-1.72h17.441a1.72,1.72,0,0,1,1.719,1.72h0A1.719,1.719,0,0,1,179.657,315.219Z" transform="translate(-160.497 -311.781)" fill="#6589d1"/><path d="M179.657,320.8H162.216a1.719,1.719,0,0,1-1.719-1.719h0a1.719,1.719,0,0,1,1.719-1.719h17.441a1.719,1.719,0,0,1,1.719,1.719h0A1.719,1.719,0,0,1,179.657,320.8Z" transform="translate(-160.497 -309.421)" fill="#6589d1"/><path d="M179.657,326.386H162.216a1.719,1.719,0,0,1-1.719-1.72h0a1.719,1.719,0,0,1,1.719-1.719h17.441a1.719,1.719,0,0,1,1.719,1.719h0A1.719,1.719,0,0,1,179.657,326.386Z" transform="translate(-160.497 -307.062)" fill="#6589d1"/><path d="M179.657,331.969H162.216a1.719,1.719,0,0,1-1.719-1.719h0a1.72,1.72,0,0,1,1.719-1.72h17.441a1.72,1.72,0,0,1,1.719,1.72h0A1.719,1.719,0,0,1,179.657,331.969Z" transform="translate(-160.497 -304.703)" fill="#6589d1"/><path d="M179.657,337.552H162.216a1.719,1.719,0,0,1-1.719-1.719h0a1.719,1.719,0,0,1,1.719-1.719h17.441a1.719,1.719,0,0,1,1.719,1.719h0A1.719,1.719,0,0,1,179.657,337.552Z" transform="translate(-160.497 -302.343)" fill="#6589d1"/><path d="M179.657,343.136H162.216a1.719,1.719,0,0,1-1.719-1.72h0a1.719,1.719,0,0,1,1.719-1.719h17.441a1.719,1.719,0,0,1,1.719,1.719h0A1.719,1.719,0,0,1,179.657,343.136Z" transform="translate(-160.497 -299.983)" fill="#6589d1"/><g transform="translate(24.184)"><path d="M254.376,315.219h-75.16A1.719,1.719,0,0,1,177.5,313.5h0a1.72,1.72,0,0,1,1.719-1.72h75.16a1.72,1.72,0,0,1,1.72,1.72h0A1.719,1.719,0,0,1,254.376,315.219Z" transform="translate(-177.497 -311.781)" fill="#3b5fb7"/><path d="M254.376,320.8h-75.16a1.719,1.719,0,0,1-1.719-1.719h0a1.719,1.719,0,0,1,1.719-1.719h75.16a1.719,1.719,0,0,1,1.72,1.719h0A1.719,1.719,0,0,1,254.376,320.8Z" transform="translate(-177.497 -309.421)" fill="#3b5fb7"/><path d="M254.376,326.386h-75.16a1.719,1.719,0,0,1-1.719-1.72h0a1.719,1.719,0,0,1,1.719-1.719h75.16a1.719,1.719,0,0,1,1.72,1.719h0A1.719,1.719,0,0,1,254.376,326.386Z" transform="translate(-177.497 -307.062)" fill="#3b5fb7"/><path d="M254.376,331.969h-75.16a1.719,1.719,0,0,1-1.719-1.719h0a1.72,1.72,0,0,1,1.719-1.72h75.16a1.72,1.72,0,0,1,1.72,1.72h0A1.719,1.719,0,0,1,254.376,331.969Z" transform="translate(-177.497 -304.703)" fill="#3b5fb7"/><path d="M254.376,337.552h-75.16a1.719,1.719,0,0,1-1.719-1.719h0a1.719,1.719,0,0,1,1.719-1.719h75.16a1.719,1.719,0,0,1,1.72,1.719h0A1.719,1.719,0,0,1,254.376,337.552Z" transform="translate(-177.497 -302.343)" fill="#3b5fb7"/><path d="M254.376,343.136h-75.16a1.719,1.719,0,0,1-1.719-1.72h0a1.719,1.719,0,0,1,1.719-1.719h75.16a1.719,1.719,0,0,1,1.72,1.719h0A1.719,1.719,0,0,1,254.376,343.136Z" transform="translate(-177.497 -299.983)" fill="#3b5fb7"/></g></g></g><g transform="translate(564.113)"><circle cx="46.242" cy="46.242" r="46.242" transform="matrix(0.233, -0.972, 0.972, 0.233, 0, 89.939)" fill="none" stroke="#dee3fc" stroke-miterlimit="10" stroke-width="0.79"/><circle cx="40.202" cy="40.202" r="40.202" transform="translate(2.712 35.246) rotate(-23.868)" fill="#3945ba"/><path d="M575.611,111.582a3.659,3.659,0,1,1-3.659-3.66A3.659,3.659,0,0,1,575.611,111.582Z" transform="translate(-516.209 -55.839)" fill="#fff"/><path d="M574.6,116.962h0a1.145,1.145,0,0,1-1.556-.445L561.223,95.19a1.144,1.144,0,0,1,.445-1.556h0a1.144,1.144,0,0,1,1.556.445l11.823,21.326A1.145,1.145,0,0,1,574.6,116.962Z" transform="translate(-519.258 -61.938)" fill="#fff"/><path d="M571.373,111h0a1.145,1.145,0,0,1,1.619,0l10.229,10.23a1.144,1.144,0,0,1,0,1.617h0a1.143,1.143,0,0,1-1.619,0l-10.228-10.228A1.145,1.145,0,0,1,571.373,111Z" transform="translate(-515.049 -54.678)" fill="#fff"/><g transform="translate(18.941 18.941)"><line y1="4.623" transform="translate(37.048)" fill="none" stroke="#fff" stroke-linecap="round" stroke-miterlimit="10" stroke-width="2"/><line x2="4.623" transform="translate(68.981 37.048)" fill="none" stroke="#fff" stroke-linecap="round" stroke-miterlimit="10" stroke-width="2"/><line y2="4.623" transform="translate(36.556 68.981)" fill="none" stroke="#fff" stroke-linecap="round" stroke-miterlimit="10" stroke-width="2"/><line x1="4.623" transform="translate(0 36.556)" fill="none" stroke="#fff" stroke-linecap="round" stroke-miterlimit="10" stroke-width="2"/></g><g transform="translate(23.749 23.749)" opacity="0.5"><line x1="2.312" y1="4.004" transform="translate(13.807)" fill="none" stroke="#dee3fc" stroke-linecap="round" stroke-miterlimit="10" stroke-width="1"/><line y1="2.312" x2="4.004" transform="translate(59.985 13.807)" fill="none" stroke="#dee3fc" stroke-linecap="round" stroke-miterlimit="10" stroke-width="1"/><line x2="2.312" y2="4.004" transform="translate(47.871 59.985)" fill="none" stroke="#dee3fc" stroke-linecap="round" stroke-miterlimit="10" stroke-width="1"/><line x1="4.004" y2="2.312" transform="translate(0 47.871)" fill="none" stroke="#dee3fc" stroke-linecap="round" stroke-miterlimit="10" stroke-width="1"/></g><g transform="translate(23.995 23.995)" opacity="0.5"><line x1="4.004" y1="2.312" transform="translate(0 13.134)" fill="none" stroke="#dee3fc" stroke-linecap="round" stroke-miterlimit="10" stroke-width="1"/><line y1="4.004" x2="2.312" transform="translate(48.051)" fill="none" stroke="#dee3fc" stroke-linecap="round" stroke-miterlimit="10" stroke-width="1"/><line x2="4.004" y2="2.312" transform="translate(59.493 48.051)" fill="none" stroke="#dee3fc" stroke-linecap="round" stroke-miterlimit="10" stroke-width="1"/><line x1="2.312" y2="4.004" transform="translate(13.134 59.493)" fill="none" stroke="#dee3fc" stroke-linecap="round" stroke-miterlimit="10" stroke-width="1"/></g></g><g transform="translate(0 203.693)"><rect width="78.006" height="78.006" rx="9.569" transform="translate(6.046 6.757)" fill="#193091"/><rect width="78.006" height="78.006" rx="7.667" fill="#7e89fd" stroke="#dee3fc" stroke-miterlimit="10" stroke-width="1"/><g transform="translate(21.682 12.3)"><path d="M181.213,240.912h-.407v-4.468a13.3,13.3,0,1,0-26.6,0v4.468h-.09a3.731,3.731,0,0,0-3.731,3.731v16.839a3.732,3.732,0,0,0,3.731,3.733h27.1a3.733,3.733,0,0,0,3.733-3.733V244.644A3.732,3.732,0,0,0,181.213,240.912Zm-23.638-4.468a9.931,9.931,0,1,1,19.862,0v4.468H157.575Z" transform="translate(-150.385 -223.141)" fill="#dee3fc"/><path d="M168.189,243.006a4.341,4.341,0,1,0-6.528,3.741.778.778,0,0,1,.394.871l-.755,2.788a2.606,2.606,0,1,0,5.032,0l-.747-2.758a.78.78,0,0,1,.4-.878A4.321,4.321,0,0,0,168.189,243.006Z" transform="translate(-146.529 -216.58)" fill="#7e89fd"/><path d="M183.345,257.819h-31.36a1.6,1.6,0,0,1-1.6-1.6h0a1.6,1.6,0,0,1,1.6-1.6h31.36a1.6,1.6,0,0,1,1.6,1.6h0A1.6,1.6,0,0,1,183.345,257.819Z" transform="translate(-150.385 -209.839)" fill="#dee3fc"/><path d="M183.345,261.632h-31.36a1.6,1.6,0,0,1-1.6-1.6h0a1.6,1.6,0,0,1,1.6-1.6h31.36a1.6,1.6,0,0,1,1.6,1.6h0A1.6,1.6,0,0,1,183.345,261.632Z" transform="translate(-150.385 -208.228)" fill="#dee3fc"/></g></g><g transform="translate(643.411 330.247)"><path d="M5.634,0H40.29a5.634,5.634,0,0,1,5.634,5.634V40.29a5.633,5.633,0,0,1-5.633,5.633H5.634A5.634,5.634,0,0,1,0,40.29V5.634A5.634,5.634,0,0,1,5.634,0Z" transform="translate(3.559 3.978)" fill="#193091"/><rect width="45.923" height="45.923" rx="4.513" fill="#7e89fd" stroke="#dee3fc" stroke-miterlimit="10" stroke-width="1"/><g transform="translate(9.247 9.245)"><g transform="translate(3.013)"><path d="M597.465,337.384a1.353,1.353,0,0,1-.388-.054,1.42,1.42,0,0,1-.982-1.754l6.945-24.584a1.422,1.422,0,1,1,2.737.772l-6.945,24.584A1.422,1.422,0,0,1,597.465,337.384Z" transform="translate(-596.041 -309.953)" fill="#fff"/></g><g transform="translate(14.626)"><path d="M605.628,337.384a1.337,1.337,0,0,1-.387-.054,1.419,1.419,0,0,1-.983-1.754l6.947-24.584a1.422,1.422,0,1,1,2.737.772L607,336.348A1.42,1.42,0,0,1,605.628,337.384Z" transform="translate(-604.204 -309.953)" fill="#fff"/></g><g transform="translate(0 6.723)"><path d="M619.929,317.524H595.346a1.423,1.423,0,0,1,0-2.845h24.584a1.423,1.423,0,0,1,0,2.845Z" transform="translate(-593.923 -314.679)" fill="#fff"/></g><g transform="translate(0 17.953)"><path d="M619.929,325.418H595.346a1.423,1.423,0,0,1,0-2.845h24.584a1.423,1.423,0,1,1,0,2.845Z" transform="translate(-593.923 -322.573)" fill="#fff"/></g></g></g><g transform="translate(110.764 230.375)"><path d="M232.734,237.149h-17.78A1.951,1.951,0,0,1,213,235.2h0a1.95,1.95,0,0,1,1.95-1.949h17.78a1.949,1.949,0,0,1,1.949,1.949h0A1.949,1.949,0,0,1,232.734,237.149Z" transform="translate(-213.004 -233.25)" fill="#f0f4ff"/><path d="M250.645,243.232h-35.69a1.95,1.95,0,0,1-1.95-1.949h0a1.951,1.951,0,0,1,1.95-1.95h35.69a1.949,1.949,0,0,1,1.949,1.95h0A1.948,1.948,0,0,1,250.645,243.232Z" transform="translate(-213.004 -230.679)" fill="#f0f4ff"/><path d="M219.17,249.316h-4.215a1.951,1.951,0,0,1-1.95-1.95h0a1.949,1.949,0,0,1,1.95-1.949h4.215a1.948,1.948,0,0,1,1.949,1.949h0A1.949,1.949,0,0,1,219.17,249.316Z" transform="translate(-213.004 -228.108)" fill="#f0f4ff"/><path d="M247.424,249.316H222.573a1.95,1.95,0,0,1-1.949-1.95h0a1.948,1.948,0,0,1,1.949-1.949h24.851a1.948,1.948,0,0,1,1.949,1.949h0A1.949,1.949,0,0,1,247.424,249.316Z" transform="translate(-209.784 -228.108)" fill="#f0f4ff"/><path d="M243.244,237.149H232.466a1.95,1.95,0,0,1-1.949-1.95h0a1.95,1.95,0,0,1,1.949-1.949h10.778a1.949,1.949,0,0,1,1.949,1.949h0A1.949,1.949,0,0,1,243.244,237.149Z" transform="translate(-205.603 -233.25)" fill="#f0f4ff"/></g><path d="M182.291,425.9a12.345,12.345,0,0,0-6.339,1.741,13.3,13.3,0,0,0-26.426,2.953,10.151,10.151,0,0,0-12.035,9.977,10.153,10.153,0,0,0,10.153,10.153h34.647a12.412,12.412,0,1,0,0-24.824Z" transform="translate(-134.152 74.289)" fill="#fff"/></g><g transform="translate(88.099 443.41)"><path d="M117.15,407.654a13.086,13.086,0,0,1,.178-5.584A55.3,55.3,0,0,0,116.7,372c-6.645-20.749-33.578-39.126-33.578-39.126s7.311,30.62,13.321,43.657c4.4,9.546,12.1,20.407,16.368,26.127a12.765,12.765,0,0,1,2.35,5.365,223.364,223.364,0,0,1,3.713,43.035l2.021.08A225.471,225.471,0,0,0,117.15,407.654Z" transform="translate(-74.054 -332.874)" fill="#dee3fc"/><path d="M127.7,382.671c5.349-16.915,7.837-36.84,7.837-36.84s-24.147,19.925-26.126,35.342a51.741,51.741,0,0,0,1.646,21.474,14.69,14.69,0,0,1,.569,5.838,204.4,204.4,0,0,0-.5,40.342l1.817-.209a201.323,201.323,0,0,1,.287-37.874,15.068,15.068,0,0,1,3.326-8A63.246,63.246,0,0,0,127.7,382.671Z" transform="translate(-63.133 -327.398)" fill="#b4c1ef"/><path d="M151.154,345.278s-26.022,9.657-32.826,30.9a56.679,56.679,0,0,0-.566,31.074,10.677,10.677,0,0,1,0,5.295c-6.1,24.449-6.19,49.758-6.19,50.1h2.071c0-.33.1-25.036,5.982-49.016a18.378,18.378,0,0,1,3.086-6.59c4.437-5.978,11.99-16.733,16.364-26.22C145.224,367.47,151.154,345.278,151.154,345.278Z" transform="translate(-62.035 -327.632)" fill="#dee3fc"/><path d="M119.953,430.531a72.172,72.172,0,0,0-6.009-23.618,8.063,8.063,0,0,1-.606-4.273,39.047,39.047,0,0,0-.607-12.7C110.618,379.515,96.782,357,76.749,355.675c0,0,6.912,11.112,10.469,20.41,4.5,11.762,10.924,24.068,21.575,28.789a8.005,8.005,0,0,1,4.121,4.279,69.817,69.817,0,0,1,5.214,21.51Z" transform="translate(-76.749 -323.238)" fill="#b4c1ef"/><g transform="translate(21.032 96.071)"><path d="M100.161,457.249h33.058l8.578-52.416a3.813,3.813,0,0,0-3.763-4.427H95.345a3.811,3.811,0,0,0-3.761,4.427Z" transform="translate(-91.533 -400.406)" fill="#dee3fc"/></g></g><line x2="925" transform="translate(49.89 596.324)" fill="none" stroke="#303d72" stroke-linecap="round" stroke-miterlimit="10" stroke-width="1.114"/><line x2="925" transform="translate(49.89 594.901)" fill="none" stroke="#d8d8d8" stroke-linecap="round" stroke-miterlimit="10" stroke-width="1.114"/></g></svg>