<svg xmlns="http://www.w3.org/2000/svg" width="659.481" height="368.811" viewBox="0 0 659.481 368.811"><g transform="translate(-154.146 -237.967)"><path d="M.93,0H658.552a.93.93,0,0,1,.93.93v0a.93.93,0,0,1-.93.93H.93A.93.93,0,0,1,0,.93v0A.93.93,0,0,1,.93,0Z" transform="translate(154.146 603.854)" fill="#d8d8d8"/><g transform="translate(568.046 510.984)"><g transform="translate(7.874 37.571)"><path d="M1722.785,1382.209s6.584-7.681.405-12.559c0,0-4.512-2.732-8.191-2.51,0,0,5.214,8.742,3.527,9.612s-5.107-10.161-5.107-10.161-10.268-1-13.572.593c0,0,8.778,7.184,6.929,7.612s-11.331-6.624-11.331-6.624-9.557,1.627-9.048,7.457,3.8,7.631,5.25,7.476,9.914-3.387,10.1-2.2-4.912,5.061-8.481,5.242c0,0,6.738,7.431,11.217,5.287s4.86-5.544,7.652-6.819,5.174-1.272,4.022.029-6.2,2.564-7.8,5.388-3.029,4.728,1.6,4.031,12.164-4.087,12.495-7.969Z" transform="translate(-1686.378 -1366.283)" fill="#599dad"/><g transform="translate(4.716 9.458)"><path d="M1703.51,1400.687s25.958-1,31.691,6.423a18.771,18.771,0,0,0,5.168,7.255l.609,1.657s-4.5-4.743-6.108-5.03C1734.87,1410.992,1737.388,1401.795,1703.51,1400.687Z" transform="translate(-1703.51 -1400.642)" fill="#599dad"/><path d="M1833.557,1448.775a16.3,16.3,0,0,1,5.96,11.483l-1.012.09s-1.779-7.613-5-10.59S1833.557,1448.775,1833.557,1448.775Z" transform="translate(-1796.697 -1435.052)" fill="#599dad"/></g></g><g transform="translate(60.414 16.718)"><path d="M1884.133,1317.645s-10.473-5.865-5.586-13.824c0,0,3.91-4.887,8.1-6.144,0,0-2.235,11.869,0,12.149s1.535-13.406,1.535-13.406,11.032-5.306,15.36-4.888c0,0-6.842,11.59-4.608,11.311s9.914-12.009,9.914-12.009,11.311-2.094,13.126,4.609-1.118,10.054-2.793,10.473-12.428.279-12.149,1.675,7.541,3.631,11.59,2.374c0,0-4.469,11.032-10.333,10.473s-7.68-4.189-11.31-4.468-6.284.7-4.468,1.676,7.96.321,10.892,2.814,5.306,4.029-.14,5.146-15.221.419-17.176-3.77Z" transform="translate(-1877.248 -1290.525)" fill="#6bb7bf"/><g transform="translate(1.354 7.013)"><path d="M1927.583,1316s-29.324,9.5-32.675,20.108a22.278,22.278,0,0,1-2.792,10.194v2.094s3.072-7.122,4.747-8.1C1896.862,1340.3,1890.3,1331.082,1927.583,1316Z" transform="translate(-1889.377 -1316.001)" fill="#6bb7bf"/><path d="M1884.905,1422.649a19.339,19.339,0,0,0-1.944,15.227l1.163-.312s-1.129-9.208,1.236-13.839S1884.905,1422.649,1884.905,1422.649Z" transform="translate(-1882.167 -1392.347)" fill="#6bb7bf"/></g></g><path d="M1708.411,1265.542s13.805-7.731,7.363-18.223c0,0-5.154-6.442-10.676-8.1,0,0,2.945,15.646,0,16.014s-2.025-17.671-2.025-17.671-14.541-6.994-20.247-6.442c0,0,9.019,15.278,6.074,14.91s-13.069-15.83-13.069-15.83-14.91-2.761-17.3,6.075,1.472,13.253,3.681,13.805,16.382.368,16.014,2.209-9.94,4.786-15.278,3.129c0,0,5.89,14.541,13.621,13.8s10.124-5.522,14.91-5.89,8.283.92,5.89,2.209-10.492.422-14.358,3.709-6.995,5.311.184,6.783,20.064.553,22.64-4.97Z" transform="translate(-1657.773 -1229.792)" fill="#86d1cd"/><g transform="translate(7.566 9.244)"><path d="M1685.258,1263.373s38.655,12.517,43.072,26.506a29.37,29.37,0,0,0,3.682,13.437v2.761s-4.05-9.388-6.258-10.676C1725.753,1295.4,1734.4,1283.253,1685.258,1263.373Z" transform="translate(-1685.258 -1263.373)" fill="#6bb7bf"/><path d="M1850.243,1403.955a25.494,25.494,0,0,1,2.563,20.072l-1.533-.412s1.489-12.136-1.63-18.241S1850.243,1403.955,1850.243,1403.955Z" transform="translate(-1803.49 -1364.012)" fill="#6bb7bf"/></g><path d="M1773.22,1497.007a27.042,27.042,0,0,0,27.042-27.042h-54.084A27.042,27.042,0,0,0,1773.22,1497.007Z" transform="translate(-1721.843 -1403.853)" fill="#ee9849"/><path d="M1788.552,1496.8a27.056,27.056,0,0,1-30.4-26.835h6.718A27.046,27.046,0,0,0,1788.552,1496.8Z" transform="translate(-1730.52 -1403.853)" fill="#f3b175"/><path d="M1799.653,1564.42h-54.832a3.337,3.337,0,0,1,3.336-3.336h48.159a3.336,3.336,0,0,1,3.336,3.336Z" transform="translate(-1720.86 -1469.89)" fill="#ee9849"/><rect width="55.589" height="0.83" transform="translate(23.446 66.112)" fill="#ee9849"/></g><g transform="translate(226.142 337.12)"><path d="M472.487,602.434c-.077-.422-1.068-4.943-8.062-4.171,0,0,3.481-.089,4.291,1.33,0,0-2.6-1.521-4.411-.647s-2.443,4.359-2.3,5.455,1.714,4.467,2.961,4.592a3.713,3.713,0,0,0,1.459-.21,16.6,16.6,0,0,0-.693,1.8c-1.949,6.1,1.723,11.258,3.984,10.3,1.451-.614,2.251,1.9,2.251,1.9L484.9,608.8S477.9,598.449,472.487,602.434Z" transform="translate(-449.245 -598.174)" fill="#2c3a64"/><path d="M493.244,968.312l-3.144,1.171s-13.656-18.939-15.337-35.6a25.3,25.3,0,0,1,.449-8.519s-.134-.762-.367-2.11c-.108-.629-.241-1.386-.393-2.254-.444-2.544-1.055-6.024-1.753-9.987-1.607-9.12-3.688-20.778-5.305-29.349l.847-.272,9.166-2.957,1.894-6.016,6.825-1.8s1.525,2.982,2.888,17.071c.252,1.848.48,3.886.652,6.1a120.68,120.68,0,0,1-.65,24.68q-.47,3.673-1.2,7.574a33.8,33.8,0,0,0-.262,7.48C488.244,947.142,493.244,968.312,493.244,968.312Z" transform="translate(-453.163 -795.624)" fill="#2b478b"/><path d="M489.666,893.787l-14.821,29.464c-.108-.629-.241-1.386-.393-2.254-.444-2.544-1.055-6.024-1.753-9.987-1.607-9.12-3.688-20.778-5.305-29.349l.847-.272,9.166-2.957,1.894-6.016,6.825-1.8s1.525,2.982,2.888,17.071C489.266,889.539,489.494,891.577,489.666,893.787Z" transform="translate(-453.163 -795.624)" fill="#233862"/><path d="M447.083,865.377l-.343-2.942c-5.748,1.527-21.106-4.266-21.106-4.266s-5.568,4.895-4.837,16.628c.357,5.727,1.009,30.062,1.689,37.263.246,2.61.461,4.467.549,5.209a.012.012,0,0,1,0,.007,1.031,1.031,0,0,1-.167.638,33.815,33.815,0,0,0-2.513,5.284c-6.682,17.806,1.029,39.734,1.029,39.734l2-.807s4.388-24.4,7.954-35.184a21.353,21.353,0,0,1,1.717-4.125c1.55-2.5,2.989-6.59,4.295-11.452a281.651,281.651,0,0,0,5.777-30.383C443.313,880.99,447.083,865.377,447.083,865.377Z" transform="translate(-417.099 -786.601)" fill="#2b478b"/><path d="M527.321,749.725a3.972,3.972,0,0,0,.158.464c2.245,6.328,6.246,12.973,8.974,15.4,1.791,1.6,6.713,3.265,10.9,4.455,2.778.814,5.258,1.406,6.275,1.662.324.083.511.116.511.116l.932-2.756s-2.173-1.359-4.825-3.142c-3.683-2.5-8.287-5.8-9.169-7.213-2.041-3.293-3.394-13.354-5.144-20.147-.087-.366-.177-.721-.267-1.07-.066-.256-.134-.508-.2-.756a.646.646,0,0,0-.063-.18c-.1-.283-.169-.539-.248-.77,0-.022-.017-.05-.035-.079a20.71,20.71,0,0,0-1.181-2.7c-.511-.792-1.068-1.184-1.673-1.05a7.569,7.569,0,0,0-1.876.975c-.222.151-.454.323-.691.52a1.787,1.787,0,0,0-.4.34,9.935,9.935,0,0,0-2.357,3.153,12.278,12.278,0,0,0-1.09,3.767C525.511,743.138,526.161,746.374,527.321,749.725Z" transform="translate(-495.463 -695.109)" fill="#ffb27d"/><path d="M488.183,702.331a17.9,17.9,0,0,1-6.328,2.485c-9.7,1.955-13.166-6.3-14.4-11.927a8.289,8.289,0,0,1,3.294-.911c.7-.062,1.433-.1,2.041-.109,1.105-.8,2.814-4.146,3.319-9.4l.45.134,7.538,2.293s-.416,2.405-.651,4.683c-.182,1.782-.251,3.488.075,3.916.589.145.943.239.943.239a.026.026,0,0,0,0,.008A48.96,48.96,0,0,1,488.183,702.331Z" transform="translate(-453.21 -659.263)" fill="#ffb27d"/><path d="M508.071,685.252s-.417,2.4-.651,4.683c-4.292-.552-6.174-4.706-6.888-6.976Z" transform="translate(-477.179 -659.62)" fill="#ed985f"/><path d="M507.081,653.165s-10.2-.851-9.571-7.195-.265-10.726,6.274-10.451,7.562,2.821,7.868,4.99S509.751,653.224,507.081,653.165Z" transform="translate(-474.968 -625.231)" fill="#ffb27d"/><path d="M466.84,726.691c-.066-.256-.134-.508-.2-.756a.646.646,0,0,0-.063-.18c-.1-.283-.169-.539-.248-.77,0-.022-.017-.05-.035-.079a20.712,20.712,0,0,0-1.181-2.7,3.374,3.374,0,0,0-1.15-1.263,21.069,21.069,0,0,0-6.066-2.162.03.03,0,0,0,0,.007c.1.234,2.818,6.425,2.368,7.9-.457,1.5-13.613-1.21-14.446-2.142-.666-.749-1.317-5.123-1.549-6.83-.059-.424-.092-.684-.092-.684s-4.758.045-7.228,1.488a20.416,20.416,0,0,1,2.1,4.527c.07.231.135.463.192.7a9.6,9.6,0,0,1,.254,1.483,2.876,2.876,0,0,1-.644,1.907,13.992,13.992,0,0,1-1.654,1.832c-.434.421-.9.865-1.382,1.342h0a127.38,127.38,0,0,1,1.485,12.91,8.779,8.779,0,0,1-.72,3.829,8.918,8.918,0,0,1-.744,1.379c-2.308,3.491-6.3,10.363-4.669,14.043.6,3.606,31.8,3.93,30.574.052,0,0,1.378-22.762,3.08-28.456.061-.208.115-.411.16-.617a12.425,12.425,0,0,0-.468-6.119A10.773,10.773,0,0,1,466.84,726.691Z" transform="translate(-426.637 -684.309)" fill="#ff9843"/><path d="M503.546,633.554c-1.383-2.066-2.615-1.766-3.338-1.259a7.153,7.153,0,0,0-9.3.547,12.175,12.175,0,0,1-4.68,6.761s1.741,1.332,6.13.661a7.306,7.306,0,0,0,3.705-2.045,23.874,23.874,0,0,1-4.588,4.584c5.347-1.851,8.111-8.754,8.391-9.485a8.021,8.021,0,0,1,1.925,3.182c.346,1.666.241,5.014,1.221,5C503.013,641.5,505.62,636.651,503.546,633.554Z" transform="translate(-466.813 -621.832)" fill="#2c3a64"/><path d="M465.7,782.87c-6.026.81-12.029-4.7-15.868-9.241a8.777,8.777,0,0,0,.72-3.829,127.37,127.37,0,0,0-1.485-12.91h0c.48-.477.948-.921,1.382-1.342a13.99,13.99,0,0,0,1.654-1.832C458.237,761.328,473.869,781.772,465.7,782.87Z" transform="translate(-439.878 -710.899)" fill="#ed7d2b"/><path d="M631.85,868c-1.354.392-3.39,2.071-6.156.58a45.371,45.371,0,0,0-5.146-2.263c-.414-.131-.649-.219-.649-.219l1.544-3.208a.621.621,0,0,0,.136.057c.726.249,4.419,1.5,6.239,1.309,2.049-.228,5.11,2.564,5.11,2.564S633.2,867.627,631.85,868Z" transform="translate(-563.688 -790.021)" fill="#ffb27d"/><path d="M431.615,1221.194H415.78a8.692,8.692,0,0,1,.448-4.244c.792-1.757,2.034-2.555,1.736-4.681a5.7,5.7,0,0,0,4.935,1.888,17.382,17.382,0,0,0,2.747,3.561C426.682,1218.462,431.3,1218.2,431.615,1221.194Z" transform="translate(-415.693 -1043.229)" fill="#233862"/><path d="M554.913,1223.064H539.078a6.582,6.582,0,0,1,.448-4.244c.92-1.521.568-2.387-.114-3.645a6.151,6.151,0,0,0,2.667.5,5.575,5.575,0,0,0,2.355-.828,57,57,0,0,0,4.512,4.739C549.98,1220.332,554.595,1220.067,554.913,1223.064Z" transform="translate(-504.993 -1045.098)" fill="#233862"/><path d="M523.519,685.317s.142.84,2.209.842c0,0,1.735,0,1.739-.911A5.57,5.57,0,0,0,523.519,685.317Z" transform="translate(-493.838 -661.051)" fill="#fff"/><path d="M585.4,865.219a6.308,6.308,0,0,0,2.341-.575c.982-.525,4.191.318,3.881.745s-2.108-.1-2.276.144a2.913,2.913,0,0,1-.825.55Z" transform="translate(-538.684 -791.172)" fill="#ffb27d"/><g transform="translate(49.37 28.121)"><path d="M47.615,0h0A47.614,47.614,0,0,1,95.229,47.614v0A47.614,47.614,0,0,1,47.615,95.229h0A47.614,47.614,0,0,1,0,47.615v0A47.615,47.615,0,0,1,47.615,0Z" fill="#e3f0ff"/><path d="M710.137,753.67v46.5a12.075,12.075,0,0,1-12.083,12.083h-46.5a12.072,12.072,0,0,1-12.083-12.083v-46.5a12.083,12.083,0,0,1,12.083-12.084h46.5A12.085,12.085,0,0,1,710.137,753.67Z" transform="translate(-627.24 -730.23)" fill="#d2e4ff"/><g transform="translate(12.938 19.107)"><path d="M723.282,848.037s-.235,7.279-1.167,10.54l-7.374,5.144,27.758,4.154-6.62-9.147s-2-9.76-.951-13.371S723.282,848.037,723.282,848.037Z" transform="translate(-694.73 -823.733)" fill="#ffb27d"/><path d="M745.623,861.685s2.195,5.284,6.329,5.167,5.076-4.791,5.076-4.791Z" transform="translate(-717.111 -836.377)" fill="#ed985f"/><path d="M729.357,790.774s-1.335-6.666-2.267-8.685-1.708-11.026,8.618-11.492c0,0,3.96.466,6.134-.854,0,0,0,1.32-.544,1.786a6.864,6.864,0,0,1,6.367,2.252c2.8,3.106-1.863,13.976-1.63,16.539Z" transform="translate(-703.313 -769.744)" fill="#b64c41"/><path d="M744.49,820.46c-3-.053-8.51-4.042-8.51-8.982v-7.709a3.076,3.076,0,0,1,2.8-3.28h11.43a3.076,3.076,0,0,1,2.795,3.28v7.273C753,816.222,747.926,820.521,744.49,820.46Z" transform="translate(-710.123 -792.026)" fill="#ffb27d"/><path d="M734.976,803.288s.016-4.632,3.685-5.344,11.879,2.258,13.044-1.12-15.871-3.319-16.729-1.164S734.976,803.288,734.976,803.288Z" transform="translate(-709.119 -787.429)" fill="#b64c41"/><path d="M693.824,898.527a.02.02,0,0,0-.011,0,5.037,5.037,0,0,0-1.182-.32v.013a73.248,73.248,0,0,0-8.537-1.628c-.3-.04-.6-.075-.9-.11a13.238,13.238,0,0,1-4.81,4.293c-.341.17-.683.325-1.034.473-.3.128-.616.254-.937.38a5.784,5.784,0,0,1-1.18-.3c-.221-.08-.438-.17-.652-.272a14.4,14.4,0,0,1-5.153-4.731c-.411.042-.811.089-1.195.137a40.4,40.4,0,0,0-6.845,1.395h0c-.215.026-7.773,1.067-19.34,18.546a12.085,12.085,0,0,0,11.374,8h46.5a12.077,12.077,0,0,0,11.425-8.138C702.582,902.966,696.316,899.448,693.824,898.527Z" transform="translate(-642.045 -861.481)" fill="#2f5196"/><path d="M738.768,889.877a2.948,2.948,0,0,0-1.582,1.911s4.944,5.086,8.179,5.163Z" transform="translate(-710.997 -856.808)" fill="#ee9849"/><path d="M766.9,896.273l6.381-7.331a2.994,2.994,0,0,1,1.3,2.294S769.643,896.467,766.9,896.273Z" transform="translate(-732.531 -856.131)" fill="#ee9849"/><path d="M760.481,936.835H754.1c.752-8.562,1.668-17.03,2.108-20.992.091-.8.159-1.423.206-1.819.007-.066.013-.126.02-.179,0-.029.007-.058.009-.082.02-.159.029-.243.029-.243l.638-.011,1.005-.018h0l.426-.006s.007.066.015.194c.007.068.013.157.024.265.007.082.013.177.022.281.04.468.1,1.147.168,2C759.124,920.361,759.811,928.6,760.481,936.835Z" transform="translate(-723.258 -873.918)" fill="#ee9849"/><path d="M757.046,905.674a30.7,30.7,0,0,1,4.736-.113.5.5,0,0,1,.38.737c-.5.9-1.527,2.471-2.6,2.471C758.057,908.769,755.711,905.778,757.046,905.674Z" transform="translate(-725.103 -868.132)" fill="#e58638"/></g></g><g transform="translate(7.504 34.007)"><path d="M588.074,869.312a4.744,4.744,0,0,1-5.9,1.542,45.2,45.2,0,0,0-5.272-1.95c-.421-.106-.66-.181-.66-.181l1.348-3.3a.633.633,0,0,0,.139.049c.74.2,4.4.218,6.412,1.294C586.474,868.017,589.057,867.979,588.074,869.312Z" transform="translate(-539.554 -825.869)" fill="#ffb27d"/><path d="M482.369,774.355l-.565,3.1s-1.059-.1-2.745-.263c-.506-.051-.8-.1-.8-.1-1.351-.146-2.97-.363-4.732-.592h-.024c-3.025-.453-6.418-1.019-9.3-1.725a24.988,24.988,0,0,1-5.022-1.736,2.84,2.84,0,0,1-.352-.209c-2.948-1.773-6.757-7.413-9.869-13.543-.432-.846-.84-1.695-1.245-2.519A65.008,65.008,0,0,1,444.236,748a25.479,25.479,0,0,1-1.014-4.234,10.629,10.629,0,0,1-.128-1.208c-.018-.219-.031-.433-.04-.641a10.965,10.965,0,0,1,7.688-2.789c.079.134.156.269.234.406,1.616,2.94,3.381,6.775,5.051,10.594.923,2.093,1.82,4.189,2.7,6.118.509,1.174,1.01,2.276,1.48,3.287a32.79,32.79,0,0,0,2.392,4.449,11.515,11.515,0,0,0,3.144,2.379,106.631,106.631,0,0,0,9.892,5.015c1.394.644,2.709,1.222,3.8,1.7C481.2,773.859,482.369,774.355,482.369,774.355Z" transform="translate(-443.026 -734.327)" fill="#ffb27d"/><path d="M450.894,726.938c-4.672-.862-7.883,3.006-7.883,3.006-.538-6.868,2.8-8.1,2.8-8.1C447.132,721.152,448.931,723.394,450.894,726.938Z" transform="translate(-442.952 -721.716)" fill="#ff9843"/></g></g><g transform="translate(688.058 464.435)"><path d="M6.972,0h61a6.972,6.972,0,0,1,6.972,6.972v0a6.972,6.972,0,0,1-6.972,6.972h-61A6.971,6.971,0,0,1,0,6.973v0A6.972,6.972,0,0,1,6.972,0Z" fill="#ee9849"/><g transform="translate(2.597 13.943)"><path d="M2118.752,1111.341l-.89,8.158-12.888,118.107a.735.735,0,0,1-.674.725,1.264,1.264,0,0,1-1.106-1.475l10.221-120.946.387-4.569Z" transform="translate(-2103.187 -1111.341)" fill="#efcbab"/><path d="M2145.681,1111.341l-.891,8.158c-.611-3.25-4.447-3.59-4.447-3.59l.387-4.569Z" transform="translate(-2130.115 -1111.341)" fill="#cca07f"/><g transform="translate(54.186)"><path d="M2314.487,1238.331a.735.735,0,0,1-.673-.725L2300.926,1119.5l-.555-5.09-.335-3.069h4.951l.387,4.569.3,3.585,9.919,117.361A1.265,1.265,0,0,1,2314.487,1238.331Z" transform="translate(-2300.036 -1111.341)" fill="#efcbab"/><path d="M2305.676,1119.495a8.506,8.506,0,0,0-5.3-5.082s0,0,0,0l-.335-3.069h4.951l.387,4.569Z" transform="translate(-2300.036 -1111.341)" fill="#cca07f"/></g></g></g><g transform="translate(207.329 515.086)"><path d="M4.466,0H70.479a4.466,4.466,0,0,1,4.466,4.466v0a4.466,4.466,0,0,1-4.466,4.466H4.466A4.466,4.466,0,0,1,0,4.466v0A4.466,4.466,0,0,1,4.466,0Z" transform="translate(0 0)" fill="#ee9849"/><g transform="translate(2.597 8.932)"><path d="M372.346,1277.141l-.89,5.226-12.888,75.66a.637.637,0,0,1-.674.464c-.661,0-1.177-.44-1.107-.945l10.221-77.479.387-2.927Z" transform="translate(-356.781 -1277.141)" fill="#efcbab"/><path d="M399.273,1277.141l-.89,5.226c-.611-2.082-4.447-2.3-4.447-2.3l.387-2.927Z" transform="translate(-383.708 -1277.141)" fill="#cca07f"/><g transform="translate(54.187)"><path d="M568.083,1358.491a.636.636,0,0,1-.674-.464l-12.889-75.66-.555-3.26-.335-1.966h4.95l.387,2.927.3,2.3,9.919,75.183C569.26,1358.052,568.744,1358.491,568.083,1358.491Z" transform="translate(-553.631 -1277.141)" fill="#efcbab"/><path d="M559.271,1282.364c-1.259-2.49-5.3-3.255-5.3-3.255a0,0,0,0,0,0,0l-.335-1.966h4.95l.387,2.927Z" transform="translate(-553.631 -1277.141)" fill="#cca07f"/></g></g></g><g transform="translate(309.568 248.902)"><path d="M48.115,0h0A48.114,48.114,0,0,1,96.23,48.114v0A48.116,48.116,0,0,1,48.114,96.23h0A48.114,48.114,0,0,1,0,48.116v0A48.115,48.115,0,0,1,48.115,0Z" fill="#e3f0ff"/><path d="M835.067,331.594v46.991a12.19,12.19,0,0,1-7.809,11.39q-.208.083-.417.152a12.153,12.153,0,0,1-3.986.667H775.866a12.068,12.068,0,0,1-1.823-.137,12.205,12.205,0,0,1-10.387-12.073V331.594a12.21,12.21,0,0,1,12.21-12.21h46.989A12.21,12.21,0,0,1,835.067,331.594Z" transform="translate(-751.299 -307.908)" fill="#d2e4ff"/><g transform="translate(13.903 19.943)"><path d="M859.088,418.945s-.207,6.4-1.025,9.262l-6.48,4.521,24.393,3.65-5.817-8.038s-1.756-8.577-.835-11.749S859.088,418.945,859.088,418.945Z" transform="translate(-828.925 -397.588)" fill="#ffb27d"/><path d="M878.721,430.939s1.929,4.643,5.562,4.541,4.46-4.211,4.46-4.211Z" transform="translate(-848.594 -408.698)" fill="#ed985f"/><path d="M864.427,368.624a58.378,58.378,0,0,0-1.992-7.632c-.819-1.774-1.5-9.689,7.574-10.1,0,0,3.48.409,5.39-.751,0,0,0,1.16-.477,1.569a6.032,6.032,0,0,1,5.595,1.979c2.456,2.729-1.637,12.282-1.432,14.534Z" transform="translate(-836.468 -350.143)" fill="#2c3a64"/><path d="M885.2,380.044v6.392a7.551,7.551,0,0,1-.66,3.039h0a9.706,9.706,0,0,1-3.272,3.949,6.3,6.3,0,0,1-3.544,1.289,6.863,6.863,0,0,1-3.368-1.27,9.51,9.51,0,0,1-3.782-4.659l-.01-.029-.024-.081a6.149,6.149,0,0,1-.3-1.854v-6.775a2.7,2.7,0,0,1,2.457-2.881h10.043A2.7,2.7,0,0,1,885.2,380.044Z" transform="translate(-842.452 -369.725)" fill="#ffb27d"/><path d="M818.8,463.043s-5.728-1.234-8.293-1.532a11.88,11.88,0,0,1-5.958,4.634c-3.332-.46-6.138-4.672-6.138-4.767a34.363,34.363,0,0,0-7.066,1.458h0c-.232.029-9.1,1.264-22.067,24.717a12.209,12.209,0,0,0,8.841,6.123c1.67-1.443,5.258-4.558,8.071-7-.031.789-.037,1.5-.02,2.125.048,1.679.1,3.345.139,5.013h35.367c-.068-.846-.124-1.664-.164-2.444-.121-2.431-.234-4.651-.338-6.677,0-.018,0-.036,0-.053l0-.064.008.007,1.788,1.551.4.351.358.312c.166.142.334.287.5.435l.919.8c.141.124.285.247.426.371.075.066.15.131.228.2s.174.15.261.227c.064.056.13.111.195.168.152.131.3.263.453.393.124.109.245.214.369.321l.307.265c.371.325.736.641,1.089.948.141.122.28.243.42.362s.287.25.426.369c.1.086.195.17.292.254.044.038.086.075.128.111.148.128.289.254.429.372l.415.362.164.141c.058.051.115.1.17.146q.209-.07.417-.152a12.234,12.234,0,0,0,7.417-8.312C826.606,463.669,818.8,463.043,818.8,463.043Z" transform="translate(-769.274 -430.759)" fill="#f99746"/><path d="M869.364,379.622s.014-4.07,3.238-4.7,10.44,1.984,11.463-.984-13.948-2.917-14.7-1.024S869.364,379.622,869.364,379.622Z" transform="translate(-841.57 -365.685)" fill="#2c3a64"/><path d="M834.944,558.591h-4.191c-.038-1.668-.091-3.334-.139-5.013-.018-.623-.011-1.337.02-2.125.007-.177.013-.356.022-.539.04.066.113.179.21.338C831.491,552.272,833.2,555.12,834.944,558.591Z" transform="translate(-813.722 -495.648)" fill="#ed7d2b"/><path d="M892.091,418.471v2.817a6.3,6.3,0,0,1-3.543,1.289,6.863,6.863,0,0,1-3.368-1.27v-2.836a2.868,2.868,0,0,1,2.86-2.86h1.192A2.868,2.868,0,0,1,892.091,418.471Z" transform="translate(-853.275 -397.59)" fill="#2c3a64"/><path d="M967.871,551.706q-.208.083-.418.153c-.055-.047-.113-.095-.17-.146l-.164-.141-.415-.362c-.139-.117-.281-.243-.428-.372-.042-.035-.084-.073-.129-.111-.1-.083-.194-.168-.292-.254-.139-.119-.283-.243-.426-.369l-.42-.363c-.353-.307-.718-.623-1.089-.948l-.307-.265c-.124-.106-.245-.212-.369-.321-.15-.13-.3-.263-.452-.393-.065-.057-.131-.112-.195-.168-.086-.077-.174-.152-.261-.227l-.228-.2-.426-.371-.919-.8c-.168-.148-.336-.294-.5-.435l-.358-.312-.4-.351-1.788-1.551a.463.463,0,0,1-.035-.031.366.366,0,0,1,.031-.022c.336-.237,3.394-2.256,5.325,1.158A80.665,80.665,0,0,0,967.871,551.706Z" transform="translate(-905.816 -489.583)" fill="#ed7d2b"/><path d="M885.317,419.781c-1.351,3.076-4.5,5.279-6.816,5.238-2.221-.041-6.018-2.543-7.15-5.929l-.01-.029-.024-.081s2.386,2.035,3.964,1.027h6.628A3.275,3.275,0,0,0,885.317,419.781Z" transform="translate(-843.229 -400.031)" fill="#2c3a64"/><path d="M894.605,421.614h-1.429c-.328,0-.745-.536-.745-.864a1.572,1.572,0,0,1,.745-.327h1.429a1.2,1.2,0,0,1,.884.466A.983.983,0,0,1,894.605,421.614Z" transform="translate(-858.53 -401.077)" fill="#ffb27d"/></g></g><g transform="translate(424.695 246.939)"><rect width="96.23" height="96.23" rx="48.115" transform="translate(0)" fill="#e3f0ff"/><path d="M1253.3,324.46v46.989a12.209,12.209,0,0,1-12.21,12.21H1194.1a12.211,12.211,0,0,1-12.21-12.21V324.46a12.212,12.212,0,0,1,12.21-12.212h46.991A12.212,12.212,0,0,1,1253.3,324.46Z" transform="translate(-1169.536 -300.773)" fill="#d2e4ff"/><g transform="translate(16.517 21.957)"><path d="M1259.444,383.57s-7.666-.384-7.882-4.808-6.547-7.651-4.713-11.2c2.249-4.356.2-8.543,3.037-11.471,3.128-3.227,7.081-1.474,9.166-3.354s5.9-3.613,9.659-1.29,6.63,1.072,9.1,3.309c2.731,2.471,1.7,5.582,3.948,7.271,2.065,1.548,1.223,5.779-.516,9.217-1.254,2.478,1.635,4.8-3.324,7.647-2.064,1.186-1.617,4.167-7.883,4.682C1267.216,383.8,1261.09,382.479,1259.444,383.57Z" transform="translate(-1232.889 -350.328)" fill="#2c3a64"/><path d="M1272.959,447.346s-.224,6.912-1.109,10.009l-7,4.885,26.359,3.945-6.286-8.685s-1.9-9.268-.9-12.7S1272.959,447.346,1272.959,447.346Z" transform="translate(-1246.174 -418.027)" fill="#b56f40"/><path d="M1294.173,460.305s2.084,5.018,6.01,4.907,4.82-4.551,4.82-4.551Z" transform="translate(-1267.427 -430.032)" fill="#99592e"/><path d="M1293.1,421.159c-2.845-.05-8.081-3.838-8.081-8.529v-7.32a2.921,2.921,0,0,1,2.654-3.115h10.853a2.921,2.921,0,0,1,2.654,3.115v6.906C1301.179,417.135,1296.361,421.217,1293.1,421.159Z" transform="translate(-1260.791 -387.918)" fill="#b56f40"/><path d="M1244.719,495.1h0a71.313,71.313,0,0,0-8.96-1.762,12.8,12.8,0,0,1-6.44,5c-3.6-.5-6.63-5.041-6.63-5.143a37.143,37.143,0,0,0-7.636,1.565l-.011,0c-.316.04-7.323,1.127-18.029,17.115a12.15,12.15,0,0,0,8.049,3.03h42.04c0-.038,0-.074-.006-.111h4.957a12.187,12.187,0,0,0,9.324-4.326C1253.849,497.556,1244.719,495.1,1244.719,495.1Z" transform="translate(-1197.008 -453.871)" fill="#b64c41"/><path d="M1284.974,399.833s1.975-6.028,8.444-5.088,7.03,2.322,7.718,3.926,2.015-5.862,2.015-5.862l-7.632-2.267s-9.235,1.051-9.9,2.6l-.664,1.548Z" transform="translate(-1260.747 -379.473)" fill="#2c3a64"/><path d="M1301.362,425.364a2.079,2.079,0,0,0-1.635-.694h-3.433a1.516,1.516,0,0,0-1.357.557,1.218,1.218,0,0,0-.192.568v0a3.2,3.2,0,0,0-1.526.027h0v0a1.244,1.244,0,0,0-.2-.594,1.51,1.51,0,0,0-1.354-.557h-3.436a2.072,2.072,0,0,0-1.632.694,1.749,1.749,0,0,0-.321,1.509c.391,1.942,2.625,2.189,3.743,2.189.345,0,.581-.024.625-.029,1.045,0,1.781-.6,2.316-1.876a3.35,3.35,0,0,0,.261-1.054h0a2.955,2.955,0,0,1,1.513-.031h0a3.335,3.335,0,0,0,.261,1.085c.535,1.277,1.271,1.874,2.316,1.876.044,0,.283.029.627.029,1.116,0,3.352-.248,3.743-2.187A1.765,1.765,0,0,0,1301.362,425.364Zm-8.372.811a3.388,3.388,0,0,1-.237.9c-.495,1.184-1.166,1.737-2.112,1.737h-.015a6.669,6.669,0,0,1-1.9-.088,2.48,2.48,0,0,1-2.223-1.891,1.534,1.534,0,0,1,.274-1.321,1.856,1.856,0,0,1,1.458-.612h3.436a1.306,1.306,0,0,1,1.167.458,1.051,1.051,0,0,1,.161.533v0a2.978,2.978,0,0,0-.3.111.135.135,0,1,0,.112.246s.072-.032.184-.07Zm8.471.654a2.483,2.483,0,0,1-2.225,1.891,6.671,6.671,0,0,1-1.9.088h-.013c-.946,0-1.618-.552-2.112-1.737a3.206,3.206,0,0,1-.239-.919v0c.065.027.131.056.2.09a.135.135,0,0,0,.127-.239,2.372,2.372,0,0,0-.322-.138v0a1.032,1.032,0,0,1,.159-.508,1.306,1.306,0,0,1,1.167-.458h3.433a1.859,1.859,0,0,1,1.461.612A1.543,1.543,0,0,1,1301.461,426.829Z" transform="translate(-1261.671 -404.206)" fill="#2c3a64"/></g></g><g transform="translate(557.282 237.967)"><path d="M1696.145,340.928l-62.9-7.254a16.455,16.455,0,0,1-14.461-18.232l7.254-62.9a16.455,16.455,0,0,1,18.231-14.461l62.9,7.254a16.454,16.454,0,0,1,14.461,18.231l-7.254,62.9A16.454,16.454,0,0,1,1696.145,340.928Z" transform="translate(-1618.669 -237.967)" fill="#e3f0ff"/><path d="M1743.56,301.858l-5.384,46.68a12.134,12.134,0,0,1-1.714,4.976v0a12.241,12.241,0,0,1-5.968,5,12.114,12.114,0,0,1-4.534.837h0a12.053,12.053,0,0,1-1.31-.08l-19.79-2.283-3.913-.451-12.789-1.475-1.642-.19-8.546-.986a12.2,12.2,0,0,1-9.925-7.558c-.106-.261-.2-.524-.29-.791a11.972,11.972,0,0,1-.59-3.345,12.163,12.163,0,0,1,.073-1.834l5.384-46.68a12.209,12.209,0,0,1,13.529-10.731l46.679,5.382A12.213,12.213,0,0,1,1743.56,301.858Z" transform="translate(-1653.809 -270.505)" fill="#d2e4ff"/><g transform="translate(13.355 22.548)"><path d="M1723.811,339.459a.768.768,0,0,0-.02-.111c-.15-.853-.32-1.7-.506-2.532v0c1.038-6.674-1.523-9.526-3.74-10.974h0c-1.191-2.327-2.464-3.966-3.67-4.523a11.833,11.833,0,0,0-6.48-.683,2.988,2.988,0,0,1,1.291-.751c-1.1-.071-3.449,1.218-3.449,1.218-15.678-4.571-16.18,17.987-15.425,23.155s-4.521,7.32-12.077,12.079c-6.865,4.324-10.561,8.986-12.55,12.682a11.986,11.986,0,0,0,.59,3.345,2.361,2.361,0,0,1,.743-.481c-.015.046-.2.555-.453,1.273a12.2,12.2,0,0,0,9.925,7.558l8.546.986,1.642.19,12.789,1.475c1.343-1.9,2.806-3.875,4.326-5.831a127.329,127.329,0,0,1,11.262-12.853c1.16-1.124,2.262-2.108,3.277-2.912l.113-.088a14.777,14.777,0,0,0,1.208-2.939,35.9,35.9,0,0,0,1.3-7.868,34.827,34.827,0,0,1-.738,7.945,13.911,13.911,0,0,1-.528,1.748,9.528,9.528,0,0,0,1.2-1.644C1725.052,354.355,1725.086,346.695,1723.811,339.459Z" transform="translate(-1667.184 -319.88)" fill="#163560"/><path d="M1813.487,433.892c.048.028-5.161,2.013-8.74.576-3.367-1.349-5.12-6.119-5.071-6.124,1.507-.123,2.164-2.1,3.136-10.8l.651.208,10.937,3.507s-.661,3.493-1.051,6.81C1813.019,430.858,1812.883,433.521,1813.487,433.892Z" transform="translate(-1763.204 -390.663)" fill="#ffb27d"/><path d="M1799.29,333.639s5.041-6.363,12.466-1.355C1811.756,332.285,1807.651,331.926,1799.29,333.639Z" transform="translate(-1762.926 -327.477)" fill="#bc3f3f"/><path d="M1824.371,421.811s-.66,3.493-1.051,6.81c-6.243-.9-8.895-6.994-9.886-10.317Z" transform="translate(-1773.176 -391.211)" fill="#ef9e67"/><path d="M1816.067,373.23s-14.843,1.5-15.634-7.76-3.239-15.3,6.2-16.648,11.589,2.027,12.6,5.053S1819.908,372.6,1816.067,373.23Z" transform="translate(-1763.118 -340.634)" fill="#ffb27d"/><path d="M1801.826,342.53s-3.154,11.206-9.265,13.338-8.96.687-8.96.687a17.751,17.751,0,0,0,4.9-10.937S1798.32,337.619,1801.826,342.53Z" transform="translate(-1751.555 -335.14)" fill="#163560"/><path d="M1846.414,344.972s3.244,2.169,4.184,4.464,1.682,7.121,3.083,6.837c0,0,2.443-7.642-1.354-11.528C1848.3,340.625,1846.414,344.972,1846.414,344.972Z" transform="translate(-1797.078 -336.615)" fill="#163560"/><path d="M1781.118,459.429c-1.542-1.933-4.693-2.938-7.784-3.457-.225-.035-.448-.071-.671-.1-.19-.027-.378-.053-.566-.077-1.3-.17-2.552-.258-3.619-.305-.159-.225-.257-.364-.285-.407a.063.063,0,0,1-.011-.013l-12.552-1.016-.132-.011-.025,0-.029,0c-.946-.1-13.949-1.392-16.463,3.195-1.644,3-1.677,8.734-.9,15.1-.234,2.159-.429,4.355-.6,6.419l1.642.19,12.789,1.475,3.913.451,19.79,2.283a12,12,0,0,0,1.31.08h0a12.109,12.109,0,0,0,4.534-.837,12.242,12.242,0,0,0,5.968-5v0C1785.526,469.6,1783.145,461.972,1781.118,459.429Z" transform="translate(-1718.131 -416.929)" fill="#bc3f3f"/></g></g><g transform="translate(563.757 364.615)"><rect width="96.176" height="96.176" rx="48.088" transform="translate(0 0)" fill="#e3f0ff"/><path d="M1758.429,751.929v46.962a12.188,12.188,0,0,1-11.606,12.188c-.2.011-.4.015-.6.015h-46.963c-.084,0-.168,0-.252,0s-.162,0-.241-.007a12.191,12.191,0,0,1-11.71-12.192V751.929a12.2,12.2,0,0,1,12.2-12.205h46.963A12.2,12.2,0,0,1,1758.429,751.929Z" transform="translate(-1674.708 -728.255)" fill="#d2e4ff"/><g transform="translate(12.848 17.549)"><path d="M1765.364,851.638s-.27,8.352-1.339,12.094l-8.46,5.9,31.849,4.766-7.6-10.495s-2.293-11.2-1.09-15.341S1765.364,851.638,1765.364,851.638Z" transform="translate(-1737.205 -823.755)" fill="#ffb27d"/><path d="M1791,867.3s2.518,6.063,7.262,5.929,5.823-5.5,5.823-5.5Z" transform="translate(-1762.882 -838.26)" fill="#ed985f"/><path d="M1772.333,785.939s-1.532-7.648-2.6-9.964-1.96-12.65,9.889-13.185c0,0,4.544.535,7.038-.98,0,0,0,1.514-.624,2.049a7.875,7.875,0,0,1,7.305,2.583c3.207,3.563-2.137,16.036-1.87,18.976Z" transform="translate(-1747.052 -761.81)" fill="#2c3a64"/><path d="M1789.7,820c-3.437-.061-9.764-4.638-9.764-10.305v-8.845a3.529,3.529,0,0,1,3.207-3.763h13.114a3.53,3.53,0,0,1,3.207,3.763v8.344C1799.461,815.136,1793.639,820.068,1789.7,820Z" transform="translate(-1754.864 -787.375)" fill="#ffb27d"/><path d="M1778.781,800.3s.018-5.314,4.228-6.131,13.631,2.59,14.967-1.285-18.21-3.809-19.194-1.336S1778.781,800.3,1778.781,800.3Z" transform="translate(-1753.713 -782.101)" fill="#2c3a64"/><path d="M1775.3,932.353h-44.57c-.083,0-.168,0-.252,0,1.127-10.21,3.546-22.524,5.482-23.334,0,0,.221-.081.647-.214l.011,0a43.71,43.71,0,0,1,6.27-1.383l.022,0q1.349-.209,2.934-.374c0,.124,3.663,5.479,8.012,6.081a15.076,15.076,0,0,0,7.782-5.906c.974.115,1.973.247,2.994.406,2.484.382,5.1.9,7.832,1.591.323.08.65.164.977.252h0c.13.031.259.066.389.1,0,0,.031.135.109.935v0C1774.105,912.315,1774.506,917.545,1775.3,932.353Z" transform="translate(-1719.021 -867.062)" fill="#739af0"/><g transform="translate(0 40.351)"><path d="M1706.153,909.839a.2.2,0,0,0-.033.009,6.327,6.327,0,0,0-.68.2c-.018.007-.036.011-.049.015a.185.185,0,0,1-.04.013.207.207,0,0,1-.027.009c-2.351.815-8.239,3.8-16.46,14.507a12.207,12.207,0,0,0,11.213,8.737c.079,0,.161.007.241.007s.168,0,.252,0H1712.4c.128-7.541.219-14.1.276-18.6.025-1.986.042-3.568.055-4.657s.018-1.686.018-1.686l-.022,0A46.868,46.868,0,0,0,1706.153,909.839Z" transform="translate(-1688.864 -908.397)" fill="#2b478b"/><path d="M1863.751,911.09a6.873,6.873,0,0,0-1.213-.349s-.006,0-.009,0a71.576,71.576,0,0,0-7.978-1.6v0c0,.064.009,1.423.027,3.767v0c.013,1.5.031,3.411.051,5.643.04,4.156.1,9.434.175,15.32h12.808c.2,0,.4,0,.6-.016a12.212,12.212,0,0,0,11.132-8.8C1871.652,914.989,1866.162,911.98,1863.751,911.09Z" transform="translate(-1808.943 -908.938)" fill="#2b478b"/></g><path d="M1800.766,824.28a2.336,2.336,0,0,0-1.838-.782h-3.862a1.71,1.71,0,0,0-1.525.627,1.423,1.423,0,0,0-.219.639v0a3.6,3.6,0,0,0-1.715.031h0v0a1.433,1.433,0,0,0-.221-.669,1.7,1.7,0,0,0-1.525-.627H1786a2.336,2.336,0,0,0-1.838.782,1.978,1.978,0,0,0-.36,1.7c.44,2.181,2.954,2.459,4.209,2.459.386,0,.654-.027.7-.031,1.176,0,2-.674,2.6-2.11a3.662,3.662,0,0,0,.292-1.185h0a3.33,3.33,0,0,1,1.7-.036h0a3.7,3.7,0,0,0,.3,1.22c.6,1.436,1.427,2.108,2.6,2.11.051,0,.318.031.7.031,1.255,0,3.77-.278,4.209-2.459A1.979,1.979,0,0,0,1800.766,824.28Zm-9.415.912a3.74,3.74,0,0,1-.265,1.008c-.557,1.332-1.312,1.953-2.375,1.953h-.015a7.54,7.54,0,0,1-2.143-.1,2.791,2.791,0,0,1-2.5-2.126,1.733,1.733,0,0,1,.307-1.487,2.087,2.087,0,0,1,1.642-.689h3.86a1.479,1.479,0,0,1,1.315.515,1.177,1.177,0,0,1,.181.6v0a3.2,3.2,0,0,0-.339.125.152.152,0,0,0,.064.29.151.151,0,0,0,.063-.014s.08-.035.206-.079Zm9.526.736a2.792,2.792,0,0,1-2.5,2.126,7.527,7.527,0,0,1-2.141.1h-.016c-1.062,0-1.819-.621-2.375-1.953a3.676,3.676,0,0,1-.267-1.034h0a2.062,2.062,0,0,1,.219.1.152.152,0,0,0,.143-.269,2.655,2.655,0,0,0-.366-.156v0a1.228,1.228,0,0,1,.181-.572,1.477,1.477,0,0,1,1.313-.515h3.862a2.088,2.088,0,0,1,1.641.689A1.734,1.734,0,0,1,1800.877,825.928Z" transform="translate(-1757.633 -806.517)" fill="#b64c41"/></g></g><g transform="translate(396.976 360.819)"><rect width="111.539" height="111.539" rx="55.77" transform="translate(0 0)" fill="#e3f0ff"/><path d="M1171.106,746.742v54.463a14.158,14.158,0,0,1-8.838,13.122q-.457.185-.93.338a14.111,14.111,0,0,1-4.386.694h-54.464a14.154,14.154,0,0,1-14.154-14.154V746.742a14.154,14.154,0,0,1,14.154-14.154h54.464A14.154,14.154,0,0,1,1171.106,746.742Z" transform="translate(-1074.013 -719.287)" fill="#d2e4ff"/><g transform="translate(32.532 27.404)"><path d="M1196.134,784.154h0a14.2,14.2,0,0,0-5.356-.157,17.261,17.261,0,0,0-7.162,2.708c-2.76,1.864-6.743,5.888-2.29,16.926l2.111,3.8c-.7,8.269-4.088,8.27-4.088,8.27a7.571,7.571,0,0,0,2.193.729s1.044-.4,1.25-.975a3.719,3.719,0,0,1-.474,1.2s5.742.544,8.61-1.624c1.559-1.179,3.265-3.944,4.366-6.762l4.343.306a8.708,8.708,0,0,1-2.71,6.236s5.357.525,7.171-.958a4.978,4.978,0,0,1-.687,1.048s5.99.215,8.462-1.653S1212.757,780.728,1196.134,784.154Z" transform="translate(-1172.489 -783.82)" fill="#233862"/><path d="M1202.313,920.837h-42.4a42.171,42.171,0,0,1-.632-9.3,19.276,19.276,0,0,1,3.808-9.733,33.226,33.226,0,0,1,7.06-7.163s.1-.02.267-.049c.3-.053.826-.137,1.385-.188h.007c.528-.279.743-2.2.807-4.448.018-.625.024-1.275.022-1.922,0-.559-.009-1.123-.022-1.677q-.01-.388-.02-.769c0-.073,0-.144-.007-.214,0-.109-.006-.215-.011-.321,0-.082,0-.163-.008-.245,0-.128-.009-.252-.014-.376-.006-.168-.013-.332-.02-.493,0-.035,0-.068,0-.1-.006-.153-.013-.3-.02-.446-.009-.177-.018-.349-.027-.513l-.007-.126c-.013-.263-.026-.508-.04-.729,0-.06-.006-.119-.009-.177s-.006-.132-.011-.194-.006-.121-.011-.177c-.011-.186-.022-.343-.031-.469,0-.029,0-.055,0-.082s0-.06-.006-.084l-.011-.179,7.156-1.416h0l4.905-.972.574-.113.144-.028v.009a43.075,43.075,0,0,0,.274,5.086,34.227,34.227,0,0,0,.6,3.595v0c.892,3.955,2.282,6.337,3.285,6.73h0a.648.648,0,0,0,.1.036C1194.276,894.586,1201.694,907.249,1202.313,920.837Z" transform="translate(-1157.915 -852.168)" fill="#d9935c"/><path d="M1206.927,881.03s.275,3.8.283,7.373c6.751-.19,10.319-6.349,11.781-9.762Z" transform="translate(-1192.493 -852.54)" fill="#cb7d45"/><path d="M1184.731,828.663s15.973.263,15.984-9.686,2.08-16.616-8.118-17.205-12.183,3.205-12.995,6.526S1180.577,828.338,1184.731,828.663Z" transform="translate(-1172.551 -796.786)" fill="#d9935c"/><path d="M1200.885,795.722s4.373,11.672,11.084,13.4,9.623-.072,9.623-.072a19.008,19.008,0,0,1-6.217-11.228S1204.183,790.166,1200.885,795.722Z" transform="translate(-1188.114 -790.98)" fill="#233862"/><path d="M1183.53,799.477s-3.266,2.606-4.062,5.14-1.154,7.749-2.675,7.572c0,0-3.3-7.934.408-12.422C1181.127,795.007,1183.53,799.477,1183.53,799.477Z" transform="translate(-1169.675 -793.788)" fill="#233862"/><path d="M1202.617,797.554s3.116,12.224,11.585,16.138c0,0-8.468-7.51-9.188-15.579S1202.617,797.554,1202.617,797.554Z" transform="translate(-1189.369 -791.47)" fill="#233862"/><path d="M1208.136,936.689c-.271-.65-.541-1.29-.8-1.92-.132-.316-.265-.627-.4-.936a.063.063,0,0,0-.007-.024c-3.692-8.765-6.615-15.383-6.9-15.867-.824-1.392-12.073-2.773-13.721-2.764-1.2,0-1.854-3.962-2.119-6.131a.806.806,0,0,0-1.251-.57c-.117.079-.237.159-.356.234-.148.1-.294.188-.442.281s-.3.179-.444.265c-.1.057-.2.115-.3.17s-.225.123-.338.183-.206.108-.307.162l-.309.154c-.1.051-.205.1-.307.148l-.243.113c-.15.068-.3.135-.449.2-.106.047-.214.091-.32.135-.075.031-.15.062-.226.091-.411.161-.822.309-1.228.442a17.053,17.053,0,0,1-8.484.8l-.135-.033a1.3,1.3,0,0,0-1.6,1.547c.247,1.127.311,2.359-.325,2.983-2.857.636-9.81,2.411-11.114,4.885-.935,1.774-1.021,12.218-1.527,21.5H1204.9a14.115,14.115,0,0,0,4.386-.694q.473-.152.93-.338C1209.51,939.988,1208.814,938.311,1208.136,936.689Z" transform="translate(-1154.49 -874.061)" fill="#f99746"/><path d="M1276.04,1020.1h-6.761c1.71-2.831,3.341-4.888,4.284-5C1274.372,1015,1275.234,1017.13,1276.04,1020.1Z" transform="translate(-1237.682 -951.435)" fill="#ed7d2b"/><path d="M1229.709,915.179s-8.423,5.334-14.8,4.072c0,0-1.53-.966.58-1.939,1.981-.91,6.59-3.6,5.577-6.26a20.79,20.79,0,0,0,5.269-2.575.8.8,0,0,1,1.249.57C1227.856,911.217,1228.512,915.179,1229.709,915.179Z" transform="translate(-1197.893 -874.062)" fill="#ed7d2b"/></g></g><g transform="translate(518.847 431.461)"><path d="M1587.578,1039.826s12.825,13.12,13.449,18.179-6.183,12.973-6.183,12.973Z" transform="translate(-1557.702 -1012.594)" fill="#ed7d2b"/><path d="M1520.646,1538.926s-.442,7.133-1.822,7.235c-.183.014-7,.014-7,.014l-8.7-.05a2.823,2.823,0,0,1,2.6-2.539c2.543-.443,6.8-2.23,8.34-5.591C1515.686,1534.457,1520.646,1538.926,1520.646,1538.926Z" transform="translate(-1496.497 -1372.645)" fill="#163560"/><path d="M1591.04,1538.926s-.443,7.133-1.822,7.235c-.183.014-7,.014-7,.014l-8.7-.05a2.822,2.822,0,0,1,2.6-2.539c2.543-.443,6.8-2.23,8.34-5.591C1586.08,1534.457,1591.04,1538.926,1591.04,1538.926Z" transform="translate(-1547.513 -1372.645)" fill="#163560"/><path d="M1531.772,1237.793s2.275,14.552,10.763,40.385,9.645,37.019,9.645,37.019l9.106-.255s.078-28.232-3.834-41.222-.844-46.831-.844-46.831Z" transform="translate(-1517.257 -1148.164)" fill="#163560"/><path d="M1515.657,1229.783a353.221,353.221,0,0,0,3.472,48.855c3.794,26.925,2.508,38.355,2.508,38.355l9.087.3s5.431-26.935,3.873-40.412,7.437-46.245,7.437-46.245Z" transform="translate(-1505.573 -1150.262)" fill="#1c468a"/><path d="M1548.413,1014.812l-4.842,3.175-7-1.3c.1-.564.559-2.906.979-5.026.026-.125.051-.25.075-.373.36-1.8.672-3.354.672-3.354l6.535-2.884,2.437-1.074c-.006.038-.189,2-.214,2.289A16.662,16.662,0,0,0,1548.413,1014.812Z" transform="translate(-1520.737 -986.609)" fill="#ffb27d"/><path d="M1535.713,1031.662c.136-.057,8.426-2.5,9.327-2.207s1.434,2.04,1.434,2.04l-13.561,3.065A6.733,6.733,0,0,1,1535.713,1031.662Z" transform="translate(-1518.084 -1005.06)" fill="#ed7d2b"/><path d="M1541.433,1092.537c-1.405,6.411-24.793,7.171-30.821,1.352-.686-.663-.719-3.749-.461-7.91.506-8.129,2.13-20.358,2.194-26.605a49.442,49.442,0,0,1,1-8.905,72.3,72.3,0,0,1,2.966-10.659s11.423-3.693,13.561-3.064C1540.167,1039.77,1542.838,1086.126,1541.433,1092.537Z" transform="translate(-1501.48 -1010.309)" fill="#ff9843"/><path d="M1510.542,1119.107c.506-8.129,2.13-20.358,2.194-26.605a49.481,49.481,0,0,1,1-8.905l6.871-1.213S1527.323,1109.826,1510.542,1119.107Z" transform="translate(-1501.871 -1043.437)" fill="#ed7d2b"/><path d="M1518.908,1171.816a1.617,1.617,0,0,1-.515,1.871,3.135,3.135,0,0,0-1.4,2.86c.225.89,2.383,2.342,3.131,2.108s2.271-1.406,2.107-1.876,1.023-4.12-.8-5.525A1.471,1.471,0,0,0,1518.908,1171.816Z" transform="translate(-1506.516 -1107.478)" fill="#ffb27d"/><path d="M1499.117,1042.093s-6.7,1.254-12.042,9.123-8.853,13.72-7.869,16.556,9.95,12.673,11.5,12.673,4.041-1.124,4.181-3.654c0,0-6.313-9.462-5.069-10.878.531-.606,8.2-6.828,9.29-4.017C1500.914,1066.547,1499.117,1042.093,1499.117,1042.093Z" transform="translate(-1479.042 -1014.237)" fill="#ff9843"/><path d="M1549.145,1009.177c-1.435,2.431-6.783,4.534-9.013,5.307.026-.125.051-.251.074-.373.36-1.8.672-3.354.672-3.354l6.535-2.884C1548.857,1007.853,1549.737,1008.177,1549.145,1009.177Z" transform="translate(-1523.315 -989.436)" fill="#fca56b"/><path d="M1530.428,971.289s10.527,3.284,12.472-3.3,4.612-10.6-2.027-12.975-8.693-.249-9.877,1.792S1527.74,970.266,1530.428,971.289Z" transform="translate(-1515.329 -950.366)" fill="#ffb27d"/><path d="M1534.852,946.7s.671,7.665,2.256,7.332,3.023-.579,2.791,1.731-1.31,5.983,3.576,6.391,10.788-13.194,9.446-15.58C1549.049,939.691,1529.255,938.3,1534.852,946.7Z" transform="translate(-1518.772 -940.897)" fill="#163560"/></g><g transform="translate(649.069 285.782)"><path d="M2173.151,489.774s-4.805,5.7-10.925,3.316a18.544,18.544,0,0,1-1.335-5.531c0-.289-.006-.569-.01-.835-.033-2.643-.122-4.126-.122-4.126l.006,0c.279-.116,9.355-3.842,9.347-3.532C2169.958,486.212,2173.151,489.774,2173.151,489.774Z" transform="translate(-2103.327 -460.5)" fill="#ffb27d"/><path d="M2169.2,485.128a14.2,14.2,0,0,1-8.321,5.956c-.033-2.643-.122-4.126-.122-4.126l.006,0C2161.017,486.889,2169.462,484.65,2169.2,485.128Z" transform="translate(-2103.327 -464.859)" fill="#ed975d"/><path d="M2149.675,446.663s10.207,2.4,11.6-3.98,3.655-10.366-2.8-12.168-8.261.354-9.245,2.37S2147.056,445.875,2149.675,446.663Z" transform="translate(-2094.142 -424.84)" fill="#ffb27d"/><path d="M2151.939,431.253c.139.089,2.336.764,6.495-7.522a7.217,7.217,0,0,0-.425-6.6c-1.522-2.486-6.918-4.441-11.4-5.292s-5.56,1.672-6.616,4.207c-1.108,2.662-4.309,4.853-4.309,4.853,3.866,2.16,8.523-.929,10.137-.421s2.183,3.051,2.3,3.866.307,1.492,2.335.764.918,2.875.593,3.564C2151.051,428.673,2150.775,430.508,2151.939,431.253Z" transform="translate(-2085.152 -411.671)" fill="#a9453d"/><g transform="translate(50.055 78.363)"><path d="M2289.743,1020.548h6.18c1.3,0,2.736-1.3,3.1-3.672s3.024-3.672,3.6-5.616-2.377-4.681-2.377-4.681l-.493-.634-.514-.661-4.9,1.152s-.121,1.166-.2,2.65a33.9,33.9,0,0,0-.02,3.4c.144,2.593-.726,5.384-3.029,5.889S2289.743,1020.548,2289.743,1020.548Z" transform="translate(-2246.719 -920.243)" fill="#2c3a64"/><path d="M2133.956,1037.257h16.383a1.454,1.454,0,0,0,.347-.1c1.094-.548.751-4.735.62-6.029-.024-.24-.043-.38-.043-.38s-5.76-4.607-6.553-1.079c-.025.11-.054.218-.085.324v0c-1,3.3-5.47,4.8-8.052,5.218C2134.6,1035.533,2134.088,1036.682,2133.956,1037.257Z" transform="translate(-2133.956 -936.952)" fill="#2c3a64"/><path d="M2145.951,713.555s.875,10.916,1.9,24.036c1.4,17.823,3.078,39.717,3.245,43.865.287,7.2,1.441,18.722,1.441,18.722s2.735,2.737,8.209,1.583a188.43,188.43,0,0,0,6.271-33.846q.033-.428.065-.86c1.3-17.713,3.312-55.013,3.312-55.013Z" transform="translate(-2142.649 -707.723)" fill="#2b478b"/><path d="M2145.951,713.555s.875,10.916,1.9,24.036l19.165,30.325q.033-.428.065-.86c1.3-17.713,3.312-55.013,3.312-55.013Z" transform="translate(-2142.649 -707.723)" fill="#233862"/><path d="M2160.466,703.477s15.769,39.531,26.139,58.109,13.609,23.762,13.609,23.762,5.94-2.376,6.48-4c0,0-3.965-35.865-10.908-44.608-3.924-4.94-8.533-19.766-8.749-24.95s-1.4-15.445-1.4-15.445Z" transform="translate(-2153.168 -696.349)" fill="#2b478b"/></g><g transform="translate(65.731 29.906)"><path d="M2290.784,693.7l.166,2.543a5.479,5.479,0,0,0,3.022,6.833s2.011.811,2.092-.755-.175-.977-.012-3.182-.7-4.288-2.161-4.99l-1.2-1.381Z" transform="translate(-2263.2 -645.3)" fill="#ffb27d"/><path d="M2220.323,570.567c-1.745.56-2.025.433-2.025.433s-8.5-15.467-9.356-16.882-18.038-17.345-18.038-17.345l4.414-16.46s19.537,25.3,21.646,28.929c3.486,6,5.529,19.931,5.529,19.931A5.106,5.106,0,0,1,2220.323,570.567Z" transform="translate(-2190.905 -520.313)" fill="#1e3d70"/></g><path d="M2133.8,533.546c.061,3.38.258,7.18.523,11.04q.025.343.048.687c.17,2.391.354,4.787.564,7.124q.127,1.406.269,2.773l.014.123c.007.34.048.71.086,1.047.862,8.753,1.764,15.668,1.932,15.775a.979.979,0,0,0,.672.171c2.3-.288,9.145.233,14.752-.987a42.5,42.5,0,0,0,13.123-5.441c.573-.339,1.879-1.236,1.773-1.906-.1-.737-.3-1.8-.542-3.141a169.992,169.992,0,0,1-2.82-22.038q-.146-2.619-.423-5.166a78.462,78.462,0,0,0-2.286-12.337c-1.923-6.923-4.748-12.224-8.293-14.3-.463-.259-2.955,1.326-5.243,2.794a10.1,10.1,0,0,1-6.5,1.541l-1.9,2.106a21.27,21.27,0,0,0-5.433,11.325q-.075.562-.13,1.2A74.365,74.365,0,0,0,2133.8,533.546Z" transform="translate(-2083.775 -480.717)" fill="#2a4e96"/><path d="M2133.8,573.313c.061,3.38.258,7.18.523,11.04.017.229.032.457.048.686,13.113-8.207,15.132-23.226,15.132-23.226a35.864,35.864,0,0,0-15.525,3.886A74.365,74.365,0,0,0,2133.8,573.313Z" transform="translate(-2083.775 -520.485)" fill="#1e3d70"/><g transform="translate(0 32.728)"><path d="M1963.4,536.214l-2.387-1.225a6.535,6.535,0,0,0-7.3-4.352s-2.343.474-1.363,1.935.814.775,2.151,2.862,3.512,3.446,5.288,3.2l2,.528Z" transform="translate(-1952.114 -530.565)" fill="#ed975d"/><path d="M1983.662,538.33c.676-1.828,1.727-1.71,1.727-1.71s19.5,4.858,21.245,5.067,20.994-7.514,20.994-7.514,7.575-3.4,11.123-.3c3.083,2.7,3.223,6.114,2.5,8.984a8.58,8.58,0,0,1-7.251,6.391c-7.851,1-23.516,2.883-26.8,2.425-7.307-1.017-23.865-10.575-23.865-10.575A6.142,6.142,0,0,1,1983.662,538.33Z" transform="translate(-1974.714 -532.018)" fill="#2a4e96"/></g></g><path d="M928.626,1066.73s.554-6.042-6.2-6.042a7.935,7.935,0,0,1,3.1,1.664s-4.306-2.527-8.992,1.357-1.774,13.625-3.2,15.475-6.974,2.22-6.3,8.2,17.611,13.47,16.523,18.419c0,0,6.636-9.755,1.891-14.206a8.792,8.792,0,0,1,2.548,4.768s.628-5.056-2.589-6.673c-2.847-1.431-5.179-6.665-4.932-7.6S928.626,1066.73,928.626,1066.73Z" transform="translate(-545.609 -596.253)" fill="#2c3a64"/><path d="M932.454,1173.223a5.994,5.994,0,0,0-10.616-2.474,5.43,5.43,0,0,0-1.069,2.633c-.7,5.69,8.4,28.867,9.7,30.965,2.372,3.821,16.339,16.917,16.339,16.917l2.574-1.56s-9.907-16.772-11.441-18.342C936.167,1199.548,934.431,1182.741,932.454,1173.223Z" transform="translate(-555.568 -674.32)" fill="#ed985f"/><path d="M937.724,1174.6a14.99,14.99,0,0,1,2.884,4.525s-3.158,9.07-10.539,10.207C930.068,1189.337,935.908,1174.6,937.724,1174.6Z" transform="translate(-562.335 -678.812)" fill="#aa413e"/><path d="M949.9,1079.294c.091-.368-8,3.656-8.408,4.111-3.793,4.208-2.712,9.7-.541,9.753,1.392.033,1.122,2.348,1.122,2.348l15.51-6.561S955.718,1078.055,949.9,1079.294Z" transform="translate(-568.796 -609.665)" fill="#2c3a64"/><path d="M816.057,1334.24l-3.356-.493a39.68,39.68,0,0,1-12.966-25.7,29.883,29.883,0,0,1-.08-5.174.907.907,0,0,0-.117-.571s0,0,0-.005c-.361-.554-1.26-1.941-2.477-3.914-1.2-1.944-3.253-5.618-5.512-9.742-4.069-7.426-8.806-16.306-10.432-19.135-5.178-9.015-2.682-15.077-2.682-15.077s14.444-1.428,18.4-4.891l1.425,2.2s3.13,13.855,2.982,13.919q.232.707.47,1.439A240.9,240.9,0,0,1,808.57,1292a41.174,41.174,0,0,1,1.084,10.762,18.905,18.905,0,0,0,.255,3.942C811.307,1316.651,816.057,1334.24,816.057,1334.24Z" transform="translate(-452.003 -733.118)" fill="#2b478b"/><path d="M905.21,1552.16h-14a7.687,7.687,0,0,1,.4-3.754c.7-1.553,1.7-1.6.127-4.038.89.916,3.75,1.295,5.775,1.023.248.4,1.6,3.1,2.428,3.7C900.848,1549.744,904.928,1549.509,905.21,1552.16Z" transform="translate(-534.116 -946.791)" fill="#233862"/><path d="M801.71,1267.093c-1.223,6.746-4.112,17.973-10.166,21.547-4.069-7.426-8.806-16.306-10.432-19.135-5.178-9.015-2.682-15.077-2.682-15.077s14.444-1.428,18.4-4.891l1.425,2.2s3.13,13.855,2.982,13.919Q801.472,1266.36,801.71,1267.093Z" transform="translate(-452.003 -733.118)" fill="#233862"/><path d="M736.369,1247.776l.047-2.619c-5.218.658-17.991-6.235-17.991-6.235s-5.459,3.63-6.206,14c-.364,5.061-2.672,26.465-2.927,32.856-.093,2.317-.124,3.97-.134,4.63a.013.013,0,0,1,0,.006.91.91,0,0,1-.222.539,29.931,29.931,0,0,0-2.827,4.334c-7.962,14.814-3.8,34.944-3.8,34.944l1.849-.47s6.732-20.867,11.132-29.894a18.9,18.9,0,0,1,1.993-3.411,41.171,41.171,0,0,0,5.119-9.528,249.007,249.007,0,0,0,8.656-25.944C731.218,1261.013,736.369,1247.776,736.369,1247.776Z" transform="translate(-396.483 -725.424)" fill="#2b478b"/><path d="M927.318,1154.662c-8.53-1.957-3.08-13.944-2.586-13.733,1.182-.241,3.778-2.317,6.1-6.369l.313.272,5.24,4.594s-1.211,1.787-2.23,3.536c-.8,1.37-1.473,2.72-1.365,3.183C933.211,1146.476,929.593,1155.184,927.318,1154.662Z" transform="translate(-556.896 -649.789)" fill="#ffb27d"/><path d="M958.722,1140.146s-1.211,1.784-2.229,3.536c-3.257-2.008-3.261-6.041-3.01-8.13Z" transform="translate(-579.234 -650.51)" fill="#ed985f"/><path d="M958.3,1117.791s-7.909-4.4-5.092-9.285,3.692-8.74,8.861-6.136,5.067,5.027,4.523,6.886S960.426,1118.81,958.3,1117.791Z" transform="translate(-578.663 -625.853)" fill="#ffb27d"/><path d="M965.734,1104.666c-.362-2.168-1.464-2.375-2.232-2.23a6.325,6.325,0,0,0-7.693-2.945,10.768,10.768,0,0,1-6.234,3.744s.918,1.708,4.7,2.765a6.464,6.464,0,0,0,3.73-.3,21.109,21.109,0,0,1-5.367,2.023c4.983.456,9.725-4.1,10.216-4.587a7.089,7.089,0,0,1,.392,3.265c-.328,1.469-1.632,4.128-.836,4.473C962.411,1110.875,966.277,1107.918,965.734,1104.666Z" transform="translate(-576.473 -624.112)" fill="#2c3a64"/><path d="M708.558,1551.893h-14a7.69,7.69,0,0,1,.4-3.753c.7-1.553,1.8-2.26,1.535-4.14a5.043,5.043,0,0,0,4.365,1.67,15.362,15.362,0,0,0,2.43,3.15C704.2,1549.477,708.276,1549.243,708.558,1551.893Z" transform="translate(-391.596 -946.524)" fill="#233862"/><path d="M813.2,1174.842a34.025,34.025,0,0,1-6.917,1.254c-3.682.4-7.484.677-9.475,1.471a2.138,2.138,0,0,0-1.364,1.1c-.863,2.6-4.667,6.6-4.667,6.6-24.383-1.109-27.06-11.308-27.06-11.308,16.4-19.076,44.181-24.6,44.181-24.6s1.984-.841,6.981,3.13c3.334,2.651,2.9,3.668,2.9,3.668S818.5,1172.993,813.2,1174.842Z" transform="translate(-441.776 -660.467)" fill="#c65447"/><path d="M893.2,1194.44c-3.682.4-7.484.677-9.475,1.471a38.829,38.829,0,0,1,4.925-21.308S892.391,1189.838,893.2,1194.44Z" transform="translate(-528.69 -678.811)" fill="#aa413e"/><path d="M51.284,0h0a51.284,51.284,0,0,1,51.284,51.284v0a51.284,51.284,0,0,1-51.284,51.284h0A51.284,51.284,0,0,1,0,51.284v0A51.284,51.284,0,0,1,51.284,0Z" transform="translate(388.48 502.421)" fill="#e3f0ff"/><path d="M1129.4,1256.137v50.085a13.024,13.024,0,0,1-13.016,13.016H1066.3a13.017,13.017,0,0,1-13.013-13.016v-50.085a13.013,13.013,0,0,1,13.013-13.014h50.085A13.016,13.016,0,0,1,1129.4,1256.137Z" transform="translate(-651.639 -728.469)" fill="#d2e4ff"/><g transform="translate(404.951 524.018)"><path d="M1146.92,1321.638s-7.269-13.185-.6-19.007,18.406-2.347,20.565,0,5.035,9.025-.928,18.519Z" transform="translate(-1121.969 -1293.301)" fill="#2c3a64"/><path d="M1141.714,1388.613s-.263,8.141-1.3,11.788l-8.247,5.753,31.044,4.646-7.4-10.23s-2.235-10.916-1.063-14.953S1141.714,1388.613,1141.714,1388.613Z" transform="translate(-1113.75 -1354.851)" fill="#b56f40"/><path d="M1166.7,1403.877s2.455,5.91,7.08,5.78,5.676-5.359,5.676-5.359Z" transform="translate(-1138.78 -1368.991)" fill="#99592e"/><path d="M1165.433,1357.773c-3.35-.059-9.518-4.52-9.518-10.045v-8.621a3.44,3.44,0,0,1,3.126-3.668h12.783a3.44,3.44,0,0,1,3.126,3.668v8.133C1174.951,1353.033,1169.276,1357.84,1165.433,1357.773Z" transform="translate(-1130.965 -1319.391)" fill="#b56f40"/><path d="M1134.594,1459.4a12.974,12.974,0,0,1-9.52,4.145h-50.085a12.979,12.979,0,0,1-9.715-4.357c10.734-14.265,17.539-15.163,17.715-15.183a45.619,45.619,0,0,1,8.973-1.763c0,.12,3.6,5.389,7.837,5.974,2.634-1.041,4.609-2.062,7.49-5.888a85.049,85.049,0,0,1,10.648,2.079l0-.017S1124.3,1445.983,1134.594,1459.4Z" transform="translate(-1065.274 -1396.794)" fill="#74acbe"/><path d="M1155.866,1332.657s2.326-7.1,9.946-5.992,8.279,2.735,9.089,4.624,2.373-6.9,2.373-6.9l-8.988-2.671s-10.877,1.237-11.658,3.061l-.781,1.823Z" transform="translate(-1130.915 -1309.445)" fill="#2c3a64"/><path d="M1173.855,1287.765s-8.053-7.318-4.6-8.881S1173.855,1287.765,1173.855,1287.765Z" transform="translate(-1140.009 -1278.289)" fill="#2c3a64"/><path d="M1166.033,1293.672s-10.182-3.837-7.546-6.563S1166.033,1293.672,1166.033,1293.672Z" transform="translate(-1132.512 -1284.002)" fill="#2c3a64"/><path d="M1188.57,1288.371s-1.666-9.439,2.358-9.37S1188.57,1288.371,1188.57,1288.371Z" transform="translate(-1154.383 -1278.489)" fill="#2c3a64"/><path d="M1191.523,1286.407s4.361-10.153,8.421-9.2S1191.523,1286.407,1191.523,1286.407Z" transform="translate(-1156.771 -1277.141)" fill="#2c3a64"/><path d="M1190.709,1294.9s6.942-8.6,10.594-6.587S1190.709,1294.9,1190.709,1294.9Z" transform="translate(-1156.181 -1285.015)" fill="#2c3a64"/></g><path d="M905.767,1166.057s-9.228.912-9.968,6.908,8.848,30.419,10.22,32.63c2.5,4.026,17.219,17.827,17.219,17.827l2.712-1.645s-10.44-17.674-12.056-19.328C911.357,1199.853,908.892,1168.134,905.767,1166.057Z" transform="translate(-537.47 -672.617)" fill="#ffb27d"/><path d="M891.779,1172.789c.024.136,8.516,2.774,13.982,0,0,0,1.17-12.61-5.355-11.925s-10.388,2.739-10.553,5.863A11.035,11.035,0,0,0,891.779,1172.789Z" transform="translate(-533.183 -668.833)" fill="#c65447"/><path d="M994.253,1370.125s-1.14,4.328,0,6.287a18.034,18.034,0,0,0,2.712,3.473v-11.4Z" transform="translate(-608.485 -819.32)" fill="#ffb27d"/><path d="M1934.457,1301.253h-72.046l23.68-102.569h68.573l3.153,1.386Z" transform="translate(-1238.035 -696.262)" fill="#cca07f"/><path d="M1921.84,1301.253h-72.046l23.68-102.569h72.047Z" transform="translate(-1228.891 -696.262)" fill="#e3f0ff"/><g transform="translate(632.776 516.84)"><path d="M2035.314,1251.066h-33.25a1.788,1.788,0,0,0-1.644,1.336,1.031,1.031,0,0,0,1.027,1.335h33.25a1.788,1.788,0,0,0,1.645-1.335A1.032,1.032,0,0,0,2035.314,1251.066Z" transform="translate(-1970.805 -1251.066)" fill="#cbe2f7"/><path d="M2030.9,1276.917H1995.8a.546.546,0,0,0-.5.408.315.315,0,0,0,.314.408h35.1a.546.546,0,0,0,.5-.408A.315.315,0,0,0,2030.9,1276.917Z" transform="translate(-1967.108 -1269.801)" fill="#cbe2f7"/><path d="M2029.325,1283.748h-35.105a.546.546,0,0,0-.5.408.315.315,0,0,0,.314.408h35.105a.546.546,0,0,0,.5-.408A.315.315,0,0,0,2029.325,1283.748Z" transform="translate(-1965.964 -1274.752)" fill="#cbe2f7"/><path d="M1948.23,1253.738h8.983a1.788,1.788,0,0,0,1.644-1.335,1.032,1.032,0,0,0-1.028-1.336h-8.983a1.789,1.789,0,0,0-1.644,1.336A1.031,1.031,0,0,0,1948.23,1253.738Z" transform="translate(-1932.237 -1251.066)" fill="#cbe2f7"/><path d="M2015.418,1326.282h-33.249a1.788,1.788,0,0,0-1.644,1.336,1.031,1.031,0,0,0,1.027,1.336h33.25a1.788,1.788,0,0,0,1.644-1.336A1.031,1.031,0,0,0,2015.418,1326.282Z" transform="translate(-1956.386 -1305.577)" fill="#cbe2f7"/><path d="M2011.005,1352.133h-35.1a.546.546,0,0,0-.5.408.315.315,0,0,0,.314.408h35.105a.546.546,0,0,0,.5-.408A.315.315,0,0,0,2011.005,1352.133Z" transform="translate(-1952.688 -1324.313)" fill="#cbe2f7"/><path d="M2009.429,1358.965h-35.105a.545.545,0,0,0-.5.408.315.315,0,0,0,.313.408h35.106a.547.547,0,0,0,.5-.408A.315.315,0,0,0,2009.429,1358.965Z" transform="translate(-1951.546 -1329.264)" fill="#cbe2f7"/><path d="M1928.334,1328.953h8.983a1.787,1.787,0,0,0,1.644-1.336,1.031,1.031,0,0,0-1.027-1.336h-8.983a1.788,1.788,0,0,0-1.644,1.336A1.031,1.031,0,0,0,1928.334,1328.953Z" transform="translate(-1917.818 -1305.577)" fill="#cbe2f7"/><path d="M1999.567,1401.5h-33.25a1.787,1.787,0,0,0-1.644,1.336,1.03,1.03,0,0,0,1.027,1.335h33.25a1.788,1.788,0,0,0,1.644-1.335A1.031,1.031,0,0,0,1999.567,1401.5Z" transform="translate(-1944.898 -1360.09)" fill="#cbe2f7"/><path d="M1995.154,1427.35h-35.105a.547.547,0,0,0-.5.408.315.315,0,0,0,.314.408h35.1a.547.547,0,0,0,.5-.408A.315.315,0,0,0,1995.154,1427.35Z" transform="translate(-1941.2 -1378.825)" fill="#cbe2f7"/><path d="M1993.577,1434.181h-35.105a.547.547,0,0,0-.5.408.315.315,0,0,0,.314.408h35.105a.546.546,0,0,0,.5-.408A.315.315,0,0,0,1993.577,1434.181Z" transform="translate(-1940.057 -1383.776)" fill="#cbe2f7"/><path d="M1912.482,1404.17h8.984a1.788,1.788,0,0,0,1.644-1.335,1.031,1.031,0,0,0-1.028-1.336H1913.1a1.788,1.788,0,0,0-1.644,1.336A1.031,1.031,0,0,0,1912.482,1404.17Z" transform="translate(-1906.329 -1360.09)" fill="#cbe2f7"/><path d="M1981.072,1479.78h-33.25a1.788,1.788,0,0,0-1.644,1.336,1.031,1.031,0,0,0,1.027,1.336h33.25a1.789,1.789,0,0,0,1.645-1.336A1.031,1.031,0,0,0,1981.072,1479.78Z" transform="translate(-1931.494 -1416.823)" fill="#cbe2f7"/><path d="M1976.659,1505.631h-35.105a.547.547,0,0,0-.5.408.315.315,0,0,0,.313.408h35.106a.546.546,0,0,0,.5-.408A.315.315,0,0,0,1976.659,1505.631Z" transform="translate(-1927.797 -1435.557)" fill="#cbe2f7"/><path d="M1975.082,1512.463h-35.105a.546.546,0,0,0-.5.407.315.315,0,0,0,.314.408h35.105a.546.546,0,0,0,.5-.408A.314.314,0,0,0,1975.082,1512.463Z" transform="translate(-1926.653 -1440.509)" fill="#cbe2f7"/><path d="M1903.588,1479.78H1894.6a1.788,1.788,0,0,0-1.644,1.336,1.031,1.031,0,0,0,1.027,1.336h8.983a1.789,1.789,0,0,0,1.644-1.336A1.031,1.031,0,0,0,1903.588,1479.78Z" transform="translate(-1892.925 -1416.823)" fill="#cbe2f7"/></g><g transform="translate(660.883 501.791)"><path d="M2025.926,1204.587h-27.92a2.97,2.97,0,0,1-2.894-3.638l1.052-4.554h34.374l-1.28,5.543A3.418,3.418,0,0,1,2025.926,1204.587Z" transform="translate(-1995.034 -1196.394)" fill="#ee9849"/><path d="M2123.626,1196.393l2.365.631h-2.511Z" transform="translate(-2088.123 -1196.393)" fill="#ed7d2b"/></g><g transform="translate(640.925 600.22)"><path d="M1994.472,1556.358a2.381,2.381,0,0,1-.7,1.686,2.381,2.381,0,0,1-1.686.7h-67.173a2.385,2.385,0,0,1,0-4.771h67.173a2.388,2.388,0,0,1,2.386,2.386Z" transform="translate(-1922.527 -1553.971)" fill="#ee9849"/><path d="M2177.123,1553.969l8.773,1.94-8.773,2.831Z" transform="translate(-2107.041 -1553.969)" fill="#739af0"/><path d="M1939.713,1553.972v4.771h-14.8a2.385,2.385,0,0,1,0-4.771Z" transform="translate(-1922.527 -1553.971)" fill="#739af0"/></g><path d="M.93,0H658.552a.93.93,0,0,1,.93.93v0a.93.93,0,0,1-.93.93H.93A.93.93,0,0,1,0,.93v0A.93.93,0,0,1,.93,0Z" transform="translate(154.146 604.917)" fill="#303d72"/></g></svg>