<svg xmlns="http://www.w3.org/2000/svg" viewBox="0 0 26.65 16"><defs><style>.cls-1{fill:#c7c7c7;}</style></defs><title>up-labs</title><g id="Layer_2" data-name="Layer 2"><g id="Layer_1-2" data-name="Layer 1"><path class="cls-1" d="M8.58.45V6.64A3.26,3.26,0,0,1,8,8.86a2.58,2.58,0,0,1-2,.69A2.55,2.55,0,0,1,4,8.9a3.31,3.31,0,0,1-.61-2.26V.45H0V6.64a6.79,6.79,0,0,0,1.11,4.19c.12.12.2.28.33.41A6.21,6.21,0,0,0,6,12.71a6.18,6.18,0,0,0,4.52-1.47,4.91,4.91,0,0,0,.33-.41A6.87,6.87,0,0,0,12,6.64V.45Z"/><path class="cls-1" d="M14.08,16V.41h3.29V2.34A4.85,4.85,0,0,1,19,.57,4.62,4.62,0,0,1,21.27,0a4.9,4.9,0,0,1,3.94,1.68,7,7,0,0,1,1.44,4.63,7,7,0,0,1-1.44,4.6,4.65,4.65,0,0,1-3.78,1.72,4.76,4.76,0,0,1-2.38-.53,4.32,4.32,0,0,1-1.68-1.64,6.81,6.81,0,0,1,.08,1c0,.33,0,.74,0,1.19v3.28H14.08ZM17.2,6.31A3.7,3.7,0,0,0,18,8.82a2.91,2.91,0,0,0,2.18.9,2.66,2.66,0,0,0,2.18-.9,3.63,3.63,0,0,0,.78-2.51,3.69,3.69,0,0,0-.78-2.5,2.8,2.8,0,0,0-2.22-.9,2.8,2.8,0,0,0-2.18.94A3.63,3.63,0,0,0,17.2,6.31Z"/><path class="cls-1" d="M10.88,16c-.12-.12-.2-.29-.32-.41A6.18,6.18,0,0,0,6,14.1a6.11,6.11,0,0,0-4.52,1.49,2.36,2.36,0,0,0-.33.41Z"/></g></g></svg>