<svg xmlns="http://www.w3.org/2000/svg" width="81.771" height="98.317" viewBox="0 0 81.771 98.317"><g transform="translate(0.5 0.5)"><path d="M132.128,272.317h35.228a10.139,10.139,0,0,0,10.128-10.128V250.3h2.424a1.32,1.32,0,0,0,1.315-1.195l.44-4.564a21.3,21.3,0,0,0,5.431-2.285l3.5,2.9a1.321,1.321,0,0,0,1.777-.083l5.236-5.236a1.321,1.321,0,0,0,.083-1.777l-2.909-3.512a21.752,21.752,0,0,0,2.291-5.424l4.5-.439a1.32,1.32,0,0,0,1.193-1.314v-7.424a1.322,1.322,0,0,0-1.195-1.315l-4.565-.44a21.3,21.3,0,0,0-2.285-5.431l2.9-3.5a1.32,1.32,0,0,0-.077-1.771l-5.171-5.237a1.321,1.321,0,0,0-1.783-.089l-3.513,2.909a21.73,21.73,0,0,0-5.422-2.292l-.44-4.565a1.321,1.321,0,0,0-1.314-1.194h-2.424V185.128A10.139,10.139,0,0,0,167.356,175H132.128A10.138,10.138,0,0,0,122,185.128v77.061a10.139,10.139,0,0,0,10.128,10.128Zm46.995-68.35a1.321,1.321,0,0,0,1.035,1.165,19.112,19.112,0,0,1,6.324,2.669,1.321,1.321,0,0,0,1.559-.092l3.309-2.742,3.48,3.524-2.75,3.322a1.321,1.321,0,0,0-.082,1.576,18.542,18.542,0,0,1,2.657,6.307,1.322,1.322,0,0,0,1.164,1.035l4.308.415v5.025l-4.243.416a1.32,1.32,0,0,0-1.163,1.035,19.131,19.131,0,0,1-2.67,6.324,1.321,1.321,0,0,0,.093,1.558l2.746,3.315-3.536,3.536-3.316-2.745a1.321,1.321,0,0,0-1.576-.082,18.538,18.538,0,0,1-6.308,2.658,1.322,1.322,0,0,0-1.035,1.165l-.416,4.307h-5.024l-.415-4.307a1.321,1.321,0,0,0-1.035-1.165,19.119,19.119,0,0,1-6.324-2.669,1.32,1.32,0,0,0-1.559.092l-3.316,2.746-3.537-3.536,2.746-3.315a1.321,1.321,0,0,0,.082-1.576,18.542,18.542,0,0,1-2.657-6.307,1.322,1.322,0,0,0-1.165-1.035l-4.307-.415v-5.025l4.307-.415a1.321,1.321,0,0,0,1.165-1.035,19.111,19.111,0,0,1,2.669-6.325,1.32,1.32,0,0,0-.093-1.558L157.5,208.5l3.535-3.536,3.316,2.746a1.323,1.323,0,0,0,1.576.082,18.516,18.516,0,0,1,6.307-2.658,1.321,1.321,0,0,0,1.035-1.165l.416-4.307h5.024Zm-46.995-26.324h35.228a7.494,7.494,0,0,1,7.486,7.486v3.082h-3.082a1.321,1.321,0,0,0,0,2.642h3.082v6.165h-2.357a1.321,1.321,0,0,0-1.315,1.195l-.44,4.564a21.308,21.308,0,0,0-5.431,2.285l-3.5-2.9a1.321,1.321,0,0,0-1.777.083l-5.236,5.236a1.322,1.322,0,0,0-.083,1.777l2.91,3.512a21.727,21.727,0,0,0-2.292,5.424l-4.565.44a1.32,1.32,0,0,0-1.195,1.314v7.424a1.321,1.321,0,0,0,1.195,1.315l4.564.44a21.333,21.333,0,0,0,2.286,5.431l-2.9,3.5a1.32,1.32,0,0,0,.083,1.776l5.237,5.237a1.322,1.322,0,0,0,1.777.083l3.512-2.908a21.77,21.77,0,0,0,5.424,2.29l.44,4.565a1.322,1.322,0,0,0,1.314,1.195h2.357v3.523h-50.2v-62.97H160.53a1.321,1.321,0,1,0,0-2.642H124.642v-3.082a7.5,7.5,0,0,1,7.486-7.486Zm-7.486,78.822h50.2v5.725a7.494,7.494,0,0,1-7.486,7.486H132.128a7.5,7.5,0,0,1-7.486-7.486Zm0,0" transform="translate(-122 -175)" fill="#0dc270" stroke="#0dc270" stroke-width="1"/><path d="M312.016,237.642h2.447a1.321,1.321,0,0,0,0-2.642h-2.447a1.321,1.321,0,0,0,0,2.642Zm0,0" transform="translate(-269.149 -221.79)" fill="#0dc270" stroke="#0dc270" stroke-width="1"/><path d="M231.624,563.247A4.624,4.624,0,1,0,227,558.624a4.624,4.624,0,0,0,4.624,4.624Zm0-6.605a1.982,1.982,0,1,1-1.982,1.982,1.982,1.982,0,0,1,1.982-1.982Zm0,0" transform="translate(-203.882 -470.554)" fill="#0dc270" stroke="#0dc270" stroke-width="1"/><path d="M296.5,340.129a15.775,15.775,0,1,0,15.775-15.774A15.774,15.774,0,0,0,296.5,340.129ZM312.279,327a13.132,13.132,0,1,1-13.133,13.132A13.132,13.132,0,0,1,312.279,327Zm0,0" transform="translate(-258.083 -291.471)" fill="#0dc270" stroke="#0dc270" stroke-width="1"/><path d="M339.492,382.688a1.321,1.321,0,0,0,1.846,0l7.7-7.52a1.321,1.321,0,1,0-1.846-1.89l-6.78,6.619-3.353-3.273a1.321,1.321,0,0,0-1.846,1.891Zm0,0" transform="translate(-287.967 -329.324)" fill="#0dc270" stroke="#0dc270" stroke-width="1"/><path d="M217.283,377h-1.825a1.321,1.321,0,0,0,0,2.642h1.825a1.321,1.321,0,0,0,0-2.642Zm0,0" transform="translate(-193.851 -332.525)" fill="#0dc270" stroke="#0dc270" stroke-width="1"/><path d="M152.747,379.642h7.965a1.321,1.321,0,0,0,0-2.642h-7.965a1.321,1.321,0,1,0,0,2.642Zm0,0" transform="translate(-144.947 -332.525)" fill="#0dc270" stroke="#0dc270" stroke-width="1"/><path d="M193.888,427h-8.43a1.321,1.321,0,1,0,0,2.642h8.43a1.321,1.321,0,0,0,0-2.642Zm0,0" transform="translate(-170.456 -371.516)" fill="#0dc270" stroke="#0dc270" stroke-width="1"/><path d="M152.747,429.642h1.36a1.321,1.321,0,1,0,0-2.642h-1.36a1.321,1.321,0,1,0,0,2.642Zm0,0" transform="translate(-144.947 -371.516)" fill="#0dc270" stroke="#0dc270" stroke-width="1"/><path d="M224.426,478.321a1.321,1.321,0,0,0,1.321,1.321h6.165a1.321,1.321,0,0,0,0-2.642h-6.165a1.321,1.321,0,0,0-1.321,1.321Zm0,0" transform="translate(-201.874 -410.508)" fill="#0dc270" stroke="#0dc270" stroke-width="1"/><path d="M162.914,477H152.747a1.321,1.321,0,1,0,0,2.642h10.167a1.321,1.321,0,0,0,0-2.642Zm0,0" transform="translate(-144.947 -410.508)" fill="#0dc270" stroke="#0dc270" stroke-width="1"/><path d="M195.747,325.642h8.367a1.321,1.321,0,1,0,0-2.642h-8.367a1.321,1.321,0,1,0,0,2.642Zm0,0" transform="translate(-178.48 -290.414)" fill="#0dc270" stroke="#0dc270" stroke-width="1"/><path d="M152.747,325.642h3.562a1.321,1.321,0,1,0,0-2.642h-3.562a1.321,1.321,0,1,0,0,2.642Zm0,0" transform="translate(-144.947 -290.414)" fill="#0dc270" stroke="#0dc270" stroke-width="1"/></g></svg>