<svg xmlns="http://www.w3.org/2000/svg" xmlns:xlink="http://www.w3.org/1999/xlink" width="588.401" height="613.204" viewBox="0 0 588.401 613.204">
  <defs>
    <linearGradient id="linear-gradient" x1="0.5" x2="0.5" y2="1" gradientUnits="objectBoundingBox">
      <stop offset="0" stop-color="#00e980"/>
      <stop offset="1" stop-color="#0dc270"/>
    </linearGradient>
  </defs>
  <g id="Group_473" data-name="Group 473" transform="translate(-955.471 -3821.445)">
    <path id="Path_778" data-name="Path 778" d="M7237.077,6133.564s-15.411,23.405-55.928,40.059-68.6-14.4-66.368-50.186,23.365-58.739,57.668-61.439S7272.871,6089.9,7237.077,6133.564Z" transform="translate(-8361.715 4659.765) rotate(-45)" fill="#0dc270"/>
    <path id="Path_779" data-name="Path 779" d="M7158.975,6273.8s66.2-111.039,240.228-190.047,294.678,68.332,285.069,238.093-100.36,278.664-247.7,291.477S7005.229,6480.931,7158.975,6273.8Z" transform="translate(-6152 -2201)" fill="url(#linear-gradient)"/>
    <g id="Group_424" data-name="Group 424" transform="translate(725.737 3477.11)" opacity="0.25" style="isolation: isolate">
      <path id="Path_780" data-name="Path 780" d="M381.694,414.148v30.693q-12.683,0-19.105,3.6-6.578,3.915-8.143,8.927-1.725,5.01-2.035,19.886h29.283v57.159H303.552v-48.7q0-26.461,1.88-36.016,1.879-9.709,10.961-19.261a48.552,48.552,0,0,1,22.08-12.844Q351.159,414.151,381.694,414.148Zm105.7,0v30.693q-12.526,0-18.946,3.6-6.735,3.761-8.3,8.927-1.725,5.164-1.878,19.886h29.124v57.159H409.412v-48.7q0-26.461,1.88-36.016,1.879-9.709,10.959-19.261a48.558,48.558,0,0,1,22.082-12.844Q457.016,414.151,487.395,414.148Z" transform="translate(0 0)" fill="#fff"/>
    </g>
    <path id="Path_777" data-name="Path 777" d="M7159.835,6277.914s67.48-113.194,244.89-193.735,300.4,69.658,290.6,242.713-102.308,284.072-252.507,297.132S7003.106,6489.063,7159.835,6277.914Z" transform="translate(-6152 -2190.176)" fill="rgba(13,194,112,0.12)"/>
  </g>
</svg>
