<svg xmlns="http://www.w3.org/2000/svg" width="98.634" height="87.164" viewBox="0 0 98.634 87.164"><g transform="translate(0.6 0.6)"><path d="M221.016,410.933a1.6,1.6,0,0,1-1.041-.384l-10.409-8.863a1.609,1.609,0,0,1,0-2.45l10.409-8.864a1.608,1.608,0,1,1,2.085,2.449l-8.97,7.639,8.97,7.639a1.609,1.609,0,0,1-1.044,2.834Zm0,0" transform="translate(-182.573 -348.398)" fill="#0dc270" stroke="#0dc270" stroke-width="1.2"/><path d="M345.317,410.933a1.609,1.609,0,0,1-1.044-2.834l8.97-7.639-8.97-7.639a1.608,1.608,0,0,1,2.085-2.449l10.409,8.864a1.609,1.609,0,0,1,0,2.45l-10.409,8.863a1.6,1.6,0,0,1-1.041.384Zm0,0" transform="translate(-286.325 -348.398)" fill="#0dc270" stroke="#0dc270" stroke-width="1.2"/><path d="M284.565,396.043a1.61,1.61,0,0,1-1.576-1.941l6.487-30.8a1.609,1.609,0,1,1,3.148.663l-6.487,30.8a1.609,1.609,0,0,1-1.572,1.277Zm0,0" transform="translate(-239.533 -326.86)" fill="#0dc270" stroke="#0dc270" stroke-width="1.2"/><path d="M180.634,294.964H104.8a10.813,10.813,0,0,1-10.8-10.8V219.8A10.813,10.813,0,0,1,104.8,209h75.833a10.813,10.813,0,0,1,10.8,10.8v64.363a10.813,10.813,0,0,1-10.8,10.8ZM104.8,212.217a7.592,7.592,0,0,0-7.583,7.583v64.363a7.592,7.592,0,0,0,7.583,7.583h75.833a7.592,7.592,0,0,0,7.583-7.583V219.8a7.592,7.592,0,0,0-7.583-7.583Zm0,0" transform="translate(-94 -209)" fill="#0dc270" stroke="#0dc270" stroke-width="1.2"/><path d="M189.825,310.307H95.609a1.609,1.609,0,0,1,0-3.217h94.217a1.609,1.609,0,0,1,0,3.217Zm0,0" transform="translate(-94 -284.549)" fill="#0dc270" stroke="#0dc270" stroke-width="1.2"/><path d="M196.54,253.47a5.091,5.091,0,1,1,5.09-5.091,5.1,5.1,0,0,1-5.09,5.091Zm0-6.964a1.873,1.873,0,1,0,1.873,1.873,1.876,1.876,0,0,0-1.873-1.873Zm0,0" transform="translate(-169.055 -235.409)" fill="#0dc270" stroke="#0dc270" stroke-width="1.2"/><path d="M128.477,253.255a5.091,5.091,0,1,1,5.09-5.09,5.1,5.1,0,0,1-5.09,5.09Zm0-6.964a1.873,1.873,0,1,0,1.873,1.874,1.876,1.876,0,0,0-1.873-1.874Zm0,0" transform="translate(-116.634 -235.244)" fill="#0dc270" stroke="#0dc270" stroke-width="1.2"/><path d="M264.606,253.684a5.09,5.09,0,1,1,5.09-5.091,5.1,5.1,0,0,1-5.09,5.091Zm0-6.964a1.873,1.873,0,1,0,1.873,1.873,1.875,1.875,0,0,0-1.873-1.873Zm0,0" transform="translate(-221.481 -235.575)" fill="#0dc270" stroke="#0dc270" stroke-width="1.2"/></g></svg>